<?xml version="1.0" encoding="UTF-8"?>
<svg version="1.1" xmlns="http://www.w3.org/2000/svg" width="500" height="109">
<path d="M0 0 C1.7890625 0.55078125 1.7890625 0.55078125 4 2 C4.83139636 3.72627371 5.65808692 5.45542413 6.43579102 7.20654297 C8.11627146 10.75097196 9.72664269 13.7229939 13 16 C20.18486767 17.55610654 27.83280697 16.19903867 35 15 C33.78850698 20.70864269 32.36683217 26.20946552 30.48828125 31.73828125 C29.93174802 34.31614316 30.15025011 35.52536252 31 38 C32.97746091 40.11364186 34.95012339 42.09497207 37.0625 44.0625 C39.13102829 45.99015236 41.06716603 47.92723235 43 50 C43 50.99 43 51.98 43 53 C40.04380781 54.1721449 37.08471211 55.33677476 34.125 56.5 C33.28324219 56.83386719 32.44148438 57.16773438 31.57421875 57.51171875 C30.76855469 57.82753906 29.96289062 58.14335938 29.1328125 58.46875 C28.38918457 58.76201172 27.64555664 59.05527344 26.87939453 59.35742188 C25 60 25 60 23 60 C22.90912109 61.39412109 22.90912109 61.39412109 22.81640625 62.81640625 C21.98418278 75.09490334 21.98418278 75.09490334 21 81 C16.19224215 81 12.54219541 77.70876532 8.625 75.11132812 C4.84607103 72.67998997 4.84607103 72.67998997 0.51171875 71.9375 C-3.14436615 73.48408646 -6.45044612 75.46161849 -9.8125 77.5625 C-10.50537109 77.98724609 -11.19824219 78.41199219 -11.91210938 78.84960938 C-13.61216951 79.89309456 -15.30665476 80.94565296 -17 82 C-18.99732292 79.00401561 -19.31106679 77.97507493 -19.6328125 74.55078125 C-19.71660156 73.70322266 -19.80039063 72.85566406 -19.88671875 71.98242188 C-19.96535156 71.10134766 -20.04398438 70.22027344 -20.125 69.3125 C-20.21136719 68.41982422 -20.29773438 67.52714844 -20.38671875 66.60742188 C-20.59866378 64.4055485 -20.80279012 62.20323391 -21 60 C-21.57935303 59.80881592 -22.15870605 59.61763184 -22.75561523 59.4206543 C-27.21417513 57.94305745 -31.65271288 56.43128261 -36.0625 54.8125 C-37.00222656 54.46832031 -37.94195312 54.12414062 -38.91015625 53.76953125 C-39.94462891 53.38861328 -39.94462891 53.38861328 -41 53 C-39.63107063 49.90296672 -38.07882641 47.88238392 -35.625 45.5625 C-35.00882813 44.95535156 -34.39265625 44.34820312 -33.7578125 43.72265625 C-33.17773438 43.15417969 -32.59765625 42.58570313 -32 42 C-29.4595774 39.66169042 -29.4595774 39.66169042 -28 37 C-28 31.05492008 -30.34536826 25.40524904 -32.16015625 19.79296875 C-33 17 -33 17 -33 15 C-17.25512528 15.96355353 -17.25512528 15.96355353 -10 17 C-9.75507813 16.30519531 -9.51015625 15.61039063 -9.2578125 14.89453125 C-7.79749975 11.53399786 -5.93718222 8.71425133 -3.875 5.6875 C-3.15054688 4.61886719 -2.42609375 3.55023437 -1.6796875 2.44921875 C-1.12539062 1.64097656 -0.57109375 0.83273437 0 0 Z " fill="#757A8B" transform="translate(179,14)"/>
<path d="M0 0 C2.32510245 2.84179188 4.57700599 5.72826599 6.75 8.6875 C7.17796875 9.26886719 7.6059375 9.85023437 8.046875 10.44921875 C9 12 9 12 9 14 C9.928125 13.835 10.85625 13.67 11.8125 13.5 C16.85733621 12.76299718 21.91435711 12.91723185 27 13 C26.59523437 14.11117187 26.19046875 15.22234375 25.7734375 16.3671875 C23.57394834 23.04613725 23.57394834 23.04613725 23 30 C25.57569866 34.40742061 28.81164671 37.13983257 33 40 C32.67 40.99 32.34 41.98 32 43 C29.12890625 44.421875 29.12890625 44.421875 25.5625 45.75 C24.38816406 46.19859375 23.21382812 46.6471875 22.00390625 47.109375 C19 48 19 48 17 47 C18.98 45.35 20.96 43.7 23 42 C22.34 41.34 21.68 40.68 21 40 C22.98 39.505 22.98 39.505 25 39 C23.35 38.34 21.7 37.68 20 37 C20.99 36.34 21.98 35.68 23 35 C22.360625 34.773125 21.72125 34.54625 21.0625 34.3125 C19 33 19 33 18.125 30.8125 C17.96569498 27.22813695 18.87223612 24.38329163 20 21 C20.66 21 21.32 21 22 21 C22.33 19.35 22.66 17.7 23 16 C21.02 15.67 19.04 15.34 17 15 C17.226875 16.0725 17.45375 17.145 17.6875 18.25 C18.0502384 22.60286081 17.51616886 22.77930386 15 26 C14.65486021 29.72750971 14.8146102 32.44383059 16 36 C17.18162304 39.54486911 17.35038381 42.2859316 17 46 C15.9375 47.875 15.9375 47.875 14 49 C10.3125 49.6875 10.3125 49.6875 7 50 C5.81318274 46.43954823 5.90310168 43.56191663 5.9375 39.8125 C5.94652344 38.54019531 5.95554688 37.26789062 5.96484375 35.95703125 C5.97644531 34.98121094 5.98804688 34.00539062 6 33 C5.01 32.67 4.02 32.34 3 32 C2.3125 29.9375 2.3125 29.9375 2 28 C0.68 27.67 -0.64 27.34 -2 27 C-2.33 28.65 -2.66 30.3 -3 32 C-4.32 32 -5.64 32 -7 32 C-6.84402344 32.88042969 -6.68804687 33.76085938 -6.52734375 34.66796875 C-6.33269531 35.82941406 -6.13804687 36.99085937 -5.9375 38.1875 C-5.74027344 39.33605469 -5.54304688 40.48460937 -5.33984375 41.66796875 C-5 45 -5 45 -6 50 C-2.04 50 1.92 50 6 50 C2 53 2 53 -0.625 52.875 C-1.73875 52.58625 -2.8525 52.2975 -4 52 C-5.23943359 51.70029297 -5.23943359 51.70029297 -6.50390625 51.39453125 C-13.43199443 49.56922709 -13.43199443 49.56922709 -15.81640625 47.1796875 C-17.23161213 44.57346677 -17.20146751 43.33768803 -16.75 40.4375 C-16.64171875 39.67308594 -16.5334375 38.90867188 -16.421875 38.12109375 C-16 36 -16 36 -15 33 C-14.7176953 30.30724751 -14.65474976 27.68842396 -15 25 C-16.49985609 23.33289654 -16.49985609 23.33289654 -18 22 C-17.58984375 19.41796875 -17.58984375 19.41796875 -17 17 C-16.26394531 16.95101562 -15.52789062 16.90203125 -14.76953125 16.8515625 C-13.79371094 16.77679688 -12.81789062 16.70203125 -11.8125 16.625 C-10.84957031 16.55539063 -9.88664062 16.48578125 -8.89453125 16.4140625 C-5.98126376 15.99731978 -3.71182461 15.09938836 -1 14 C1.8125 14.375 1.8125 14.375 4 15 C4.33 13.68 4.66 12.36 5 11 C4.34 11 3.68 11 3 11 C0.8614515 8.8614515 0.57344937 7.86724686 0 5 C-0.33 6.65 -0.66 8.3 -1 10 C-1.66 10 -2.32 10 -3 10 C-3.99 11.485 -3.99 11.485 -5 13 C-5.66 13 -6.32 13 -7 13 C-7 13.66 -7 14.32 -7 15 C-14.92 15.495 -14.92 15.495 -23 16 C-21.99579876 18.00840249 -20.99097035 20.01699699 -19.9375 22 C-18.03914035 26.04983393 -17.89867085 29.5415175 -18 34 C-19.98 34.495 -19.98 34.495 -22 35 C-21.01 35.66 -20.02 36.32 -19 37 C-21.64 37.99 -24.28 38.98 -27 40 C-24.69 40 -22.38 40 -20 40 C-20.66 40.66 -21.32 41.32 -22 42 C-21.34 42.45375 -20.68 42.9075 -20 43.375 C-19.34 43.91125 -18.68 44.4475 -18 45 C-18 45.66 -18 46.32 -18 47 C-23.54050113 46.43174347 -28.03715966 44.37113483 -33 42 C-30.81709206 38.4737641 -28.82830108 35.77867063 -25.6875 33.0625 C-24.11422392 31.63684041 -24.11422392 31.63684041 -23 30 C-23 26.31059714 -23.68747738 23.7721147 -25.0625 20.375 C-26.10383041 17.73696297 -26.06998386 15.80868555 -26 13 C-24.865625 13.13921875 -23.73125 13.2784375 -22.5625 13.421875 C-15.73011701 14.02179344 -15.73011701 14.02179344 -9 13 C-5.19011414 9.50587914 -3.14016155 5.66153937 -1 1 C-0.67 0.67 -0.34 0.34 0 0 Z " fill="#2E3953" transform="translate(180,22)"/>
<path d="M0 0 C1.7890625 0.55078125 1.7890625 0.55078125 4 2 C4.83139636 3.72627371 5.65808692 5.45542413 6.43579102 7.20654297 C8.11627146 10.75097196 9.72664269 13.7229939 13 16 C20.18486767 17.55610654 27.83280697 16.19903867 35 15 C33.78850698 20.70864269 32.36683217 26.20946552 30.48828125 31.73828125 C29.93174802 34.31614316 30.15025011 35.52536252 31 38 C32.97746091 40.11364186 34.95012339 42.09497207 37.0625 44.0625 C39.13102829 45.99015236 41.06716603 47.92723235 43 50 C43 50.99 43 51.98 43 53 C40.04380781 54.1721449 37.08471211 55.33677476 34.125 56.5 C33.28324219 56.83386719 32.44148438 57.16773438 31.57421875 57.51171875 C30.76855469 57.82753906 29.96289062 58.14335938 29.1328125 58.46875 C28.38918457 58.76201172 27.64555664 59.05527344 26.87939453 59.35742188 C25 60 25 60 23 60 C22.90912109 61.39412109 22.90912109 61.39412109 22.81640625 62.81640625 C21.98418278 75.09490334 21.98418278 75.09490334 21 81 C16.19224215 81 12.54219541 77.70876532 8.625 75.11132812 C4.84607103 72.67998997 4.84607103 72.67998997 0.51171875 71.9375 C-3.14436615 73.48408646 -6.45044612 75.46161849 -9.8125 77.5625 C-10.50537109 77.98724609 -11.19824219 78.41199219 -11.91210938 78.84960938 C-13.61216951 79.89309456 -15.30665476 80.94565296 -17 82 C-17 81.01 -17 80.02 -17 79 C-15.53125 77.74145508 -15.53125 77.74145508 -13.5 76.51953125 C-12.778125 76.07802734 -12.05625 75.63652344 -11.3125 75.18164062 C-10.549375 74.72982422 -9.78625 74.27800781 -9 73.8125 C-8.236875 73.34908203 -7.47375 72.88566406 -6.6875 72.40820312 C-4.79731897 71.26228088 -2.90158864 70.12685563 -1 69 C-1.75925781 69.42152344 -2.51851562 69.84304687 -3.30078125 70.27734375 C-4.29464844 70.82519531 -5.28851563 71.37304688 -6.3125 71.9375 C-7.29863281 72.48277344 -8.28476563 73.02804688 -9.30078125 73.58984375 C-12 75 -12 75 -15 76 C-15 75.01 -15 74.02 -15 73 C-12.80269616 71.62442759 -10.59510062 70.27536748 -8.375 68.9375 C-7.75753906 68.54755859 -7.14007813 68.15761719 -6.50390625 67.75585938 C-3.37257829 65.89354327 -1.58848418 64.98823032 2.125 65.0625 C5.20127948 66.06563461 7.64583354 67.32911049 10.375 69.0625 C11.68597656 69.88427734 11.68597656 69.88427734 13.0234375 70.72265625 C14.00183594 71.35494141 14.00183594 71.35494141 15 72 C15.309375 70.845 15.61875 69.69 15.9375 68.5 C16.11152344 67.8503125 16.28554687 67.200625 16.46484375 66.53125 C17.19863863 63.06045379 17.55998459 59.52012325 18 56 C22.95 54.02 27.9 52.04 33 50 C30.97568227 45.95136454 30.07098353 45.26686169 26.625 42.75 C24.4453125 40.703125 24.4453125 40.703125 23 38 C23.06413452 32.4844312 25.1556561 27.13425464 27 22 C25.865625 22.13921875 24.73125 22.2784375 23.5625 22.421875 C14.33135303 23.2075916 14.33135303 23.2075916 10 22 C6.90723227 19.09016076 5.26381315 16.3962063 3.34765625 12.625 C2.68056641 11.325625 2.68056641 11.325625 2 10 C1.34 10 0.68 10 0 10 C-1.20164578 11.97918128 -2.36130218 13.98394484 -3.5 16 C-7.21620754 21.73955102 -7.21620754 21.73955102 -10.50390625 22.83203125 C-13.11069163 22.81213212 -15.44708192 22.51720383 -18 22 C-19.37470516 21.83091862 -20.74967082 21.66392812 -22.125 21.5 C-23.07375 21.335 -24.0225 21.17 -25 21 C-24.69964844 21.88042969 -24.39929688 22.76085937 -24.08984375 23.66796875 C-23.51943359 25.41013672 -23.51943359 25.41013672 -22.9375 27.1875 C-22.55464844 28.33605469 -22.17179688 29.48460938 -21.77734375 30.66796875 C-20.98709694 34.0553081 -20.82113199 35.76086733 -22 39 C-23.55859375 40.87890625 -23.55859375 40.87890625 -25.4375 42.5625 C-28.00538267 44.88378016 -29.61211066 46.81273653 -31 50 C-30.07316406 50.33773437 -29.14632812 50.67546875 -28.19140625 51.0234375 C-26.39509766 51.69246094 -26.39509766 51.69246094 -24.5625 52.375 C-23.36753906 52.81585938 -22.17257813 53.25671875 -20.94140625 53.7109375 C-18 55 -18 55 -17 57 C-23.46712188 55.83805848 -29.09622349 53.8751252 -35 51 C-33.12625411 47.25250821 -30.82296472 44.88637039 -27.75 42.125 C-24.45159465 39.00265755 -24.45159465 39.00265755 -23.8125 34.5625 C-24.204375 33.386875 -24.59625 32.21125 -25 31 C-25.25265625 30.23042969 -25.5053125 29.46085937 -25.765625 28.66796875 C-26.27938138 27.1090707 -26.81559825 25.55731007 -27.37890625 24.015625 C-28 22 -28 22 -28 19 C-21.4 19.33 -14.8 19.66 -8 20 C-7.34 18.35 -6.68 16.7 -6 15 C-4.73817611 12.61911331 -3.36695499 10.32382349 -2 8 C-4.31 11.3 -6.62 14.6 -9 18 C-9.66 17.67 -10.32 17.34 -11 17 C-9.35634678 14.3528064 -7.70971327 11.70747957 -6.0625 9.0625 C-5.59392578 8.30775391 -5.12535156 7.55300781 -4.64257812 6.77539062 C-4.19462891 6.05673828 -3.74667969 5.33808594 -3.28515625 4.59765625 C-2.87144775 3.93258057 -2.45773926 3.26750488 -2.03149414 2.58227539 C-1 1 -1 1 0 0 Z " fill="#696E81" transform="translate(179,14)"/>
<path d="M0 0 C2.31 0 4.62 0 7 0 C6.39816251 2.02045442 5.72693904 4.02111039 5 6 C4.34 6.33 3.68 6.66 3 7 C3 7.99 3 8.98 3 10 C2.36485174 12.34210921 1.7013284 14.67684969 1 17 C1.99 17.33 2.98 17.66 4 18 C5.35622245 18.96873032 6.69417053 19.96434215 8 21 C7.01 21.33 6.02 21.66 5 22 C7.475 22.99 7.475 22.99 10 24 C8.02 24.99 8.02 24.99 6 26 C6.495 26.99 6.495 26.99 7 28 C6.03578125 28.50402344 5.0715625 29.00804688 4.078125 29.52734375 C0.6902347 31.74958087 0.6902347 31.74958087 0.046875 35.56640625 C-0.07963732 36.89610345 -0.17797446 38.22874128 -0.25 39.5625 C-0.79712893 46.69569339 -0.79712893 46.69569339 -3 50 C-3.79664063 49.48308594 -4.59328125 48.96617188 -5.4140625 48.43359375 C-6.47367188 47.77488281 -7.53328125 47.11617187 -8.625 46.4375 C-9.66914063 45.77621094 -10.71328125 45.11492187 -11.7890625 44.43359375 C-15.56569415 42.74743339 -17.08942283 42.79354534 -21 44 C-23.79357711 45.36494254 -23.79357711 45.36494254 -26.375 47.0625 C-27.68597656 47.88427734 -27.68597656 47.88427734 -29.0234375 48.72265625 C-30.00183594 49.35494141 -30.00183594 49.35494141 -31 50 C-33.15059309 46.46813168 -33.3797728 43.33712007 -33.625 39.25 C-33.69976562 38.07953125 -33.77453125 36.9090625 -33.8515625 35.703125 C-33.90054688 34.81109375 -33.94953125 33.9190625 -34 33 C-32 34 -32 34 -30.875 37.0625 C-30.58625 38.031875 -30.2975 39.00125 -30 40 C-29.01 39.505 -29.01 39.505 -28 39 C-28 40.32 -28 41.64 -28 43 C-27.01 42.01 -26.02 41.02 -25 40 C-24.67 40.33 -24.34 40.66 -24 41 C-23.34 40.34 -22.68 39.68 -22 39 C-22 39.66 -22 40.32 -22 41 C-20.39125 40.7525 -20.39125 40.7525 -18.75 40.5 C-15 40 -15 40 -11 40 C-10.34 40.66 -9.68 41.32 -9 42 C-8.01 42 -7.02 42 -6 42 C-5.34 42.99 -4.68 43.98 -4 45 C-4.495 42.525 -4.495 42.525 -5 40 C-4.34 40 -3.68 40 -3 40 C-2.67 38.68 -2.34 37.36 -2 36 C-3.11375 36.185625 -4.2275 36.37125 -5.375 36.5625 C-9 37 -9 37 -11 36 C-13.0374763 35.77141886 -15.08040303 35.58975722 -17.125 35.4375 C-19.06375 35.293125 -21.0025 35.14875 -23 35 C-23.33 29.06 -23.66 23.12 -24 17 C-22.68 17 -21.36 17 -20 17 C-19.67 15.35 -19.34 13.7 -19 12 C-16.525 12.495 -16.525 12.495 -14 13 C-14 14.32 -14 15.64 -14 17 C-12.68 17.33 -11.36 17.66 -10 18 C-10 23.61 -10 29.22 -10 35 C-8.700625 34.525625 -7.40125 34.05125 -6.0625 33.5625 C-5.33160156 33.29566406 -4.60070312 33.02882812 -3.84765625 32.75390625 C-2.01694322 32.14613052 -2.01694322 32.14613052 -1 31 C-0.78513359 27.34727106 -0.83768581 24.48694256 -2 21 C-3.1853898 17.44383059 -3.34513979 14.72750971 -3 11 C-2 9.66666667 -1 8.33333333 0 7 C0.25063732 3.33285151 0.25063732 3.33285151 0 0 Z " fill="#686F84" transform="translate(197,37)"/>
<path d="M0 0 C8.25444778 -0.39306894 15.13985643 0.4660497 21.8125 5.6875 C26.42465962 9.9893287 29.36996612 15.69966118 30 22 C30.03265279 24.6670795 30.0108431 27.3325985 30 30 C27.39555652 30.05394705 24.79223002 30.09364469 22.1875 30.125 C21.44951172 30.14175781 20.71152344 30.15851562 19.95117188 30.17578125 C16.08753574 30.21074628 14.29096332 30.19397555 11 28 C10.773125 26.865625 10.54625 25.73125 10.3125 24.5625 C9.41731169 20.97645561 9.41731169 20.97645561 7.09765625 19.875 C5.0786564 19.13694733 3.08762165 18.50976808 1 18 C0.67 15.69 0.34 13.38 0 11 C4.65422701 10.62766184 8.05195253 10.53492011 12.3125 12.625 C15.23823295 15.21053144 17.14098656 17.56797519 19 21 C19 22.32 19 23.64 19 25 C19.66 25 20.32 25 21 25 C18.77239487 18.13356802 18.77239487 18.13356802 14.4375 12.5 C9.74495813 10.45234536 5.05305881 9.6833318 0 9 C0 6.03 0 3.06 0 0 Z " fill="#00AFA5" transform="translate(71,13)"/>
<path d="M0 0 C0.28951652 5.59731932 0.18452849 9.1683016 -3 14 C-6.47822112 17.47822112 -9.12226395 18.54625711 -14 19 C-14 19.66 -14 20.32 -14 21 C-7.13356802 18.77239487 -7.13356802 18.77239487 -1.5 14.4375 C0.54765464 9.74495813 1.3166682 5.05305881 2 0 C4.97 0 7.94 0 11 0 C11.4418949 7.95410823 10.36241561 15.44908559 5.3125 21.875 C0.70110338 26.75089069 -5.62799482 29.81903952 -12.359375 30.09765625 C-13.14828125 30.08605469 -13.9371875 30.07445313 -14.75 30.0625 C-15.54921875 30.05347656 -16.3484375 30.04445313 -17.171875 30.03515625 C-17.77515625 30.02355469 -18.3784375 30.01195313 -19 30 C-19.05394705 27.39555652 -19.09364469 24.79223002 -19.125 22.1875 C-19.14175781 21.44951172 -19.15851563 20.71152344 -19.17578125 19.95117188 C-19.21074628 16.08753574 -19.19397555 14.29096332 -17 11 C-15.2984375 10.6596875 -15.2984375 10.6596875 -13.5625 10.3125 C-9.97582942 9.42738774 -9.97582942 9.42738774 -8.9453125 7.1328125 C-8.4496717 5.6969871 -8.00064466 4.24400334 -7.60546875 2.77734375 C-6.3740025 -0.83760558 -3.28551541 -0.08646093 0 0 Z " fill="#5B78B1" transform="translate(90,66)"/>
<path d="M0 0 C1.92382741 1.92382741 1.21841339 5.25661659 1.25 7.8125 C1.27578125 9.05644531 1.3015625 10.30039062 1.328125 11.58203125 C0.98199676 15.18753378 0.58120367 16.52511593 -2 19 C-3.7634375 19.680625 -3.7634375 19.680625 -5.5625 20.375 C-9.2524172 21.6548627 -9.2524172 21.6548627 -10.3125 25.0625 C-10.539375 26.031875 -10.76625 27.00125 -11 28 C-13 30 -13 30 -15.625 30.125 C-16.40875 30.08375 -17.1925 30.0425 -18 30 C-18.35446263 25.01783075 -18.54177269 21.14605761 -16.375 16.5625 C-13.75244708 13.73290343 -11.59072773 12.37517232 -8 11 C-7.01 11 -6.02 11 -5 11 C-5 10.34 -5 9.68 -5 9 C-11.44835065 11.46635634 -15.78550247 13.57100495 -19 20 C-19.22622081 21.70363822 -19.40888473 23.41328701 -19.5625 25.125 C-19.64628906 26.03507812 -19.73007812 26.94515625 -19.81640625 27.8828125 C-19.87699219 28.58148438 -19.93757813 29.28015625 -20 30 C-22.97 30 -25.94 30 -29 30 C-29.50301448 22.52464598 -29.27033433 16.35752021 -25 10 C-18.1947894 2.26133131 -10.2898776 -1.17083946 0 0 Z " fill="#F24C63" transform="translate(48,13)"/>
<path d="M0 0 C2.60478883 -0.0809313 5.20706653 -0.14045434 7.8125 -0.1875 C8.55048828 -0.21263672 9.28847656 -0.23777344 10.04882812 -0.26367188 C15.49899415 -0.33765603 15.49899415 -0.33765603 17.96484375 1.32421875 C19 3 19 3 19.75 6 C20.76115865 9.36253465 20.76115865 9.36253465 24.5 10.6875 C25.655 11.120625 26.81 11.55375 28 12 C30 15 30 15 29.625 17.1875 C29.315625 18.0846875 29.315625 18.0846875 29 19 C22.56573585 19.45152731 19.26039007 18.81636142 14 15 C11.83578731 12.11438308 10.65563302 9.54041829 10 6 C10.38869305 11.44170274 12.11649679 14.20279686 16 18 C20.49331131 20.09687861 25.11342832 20.49449259 30 21 C30.09765625 27.15234375 30.09765625 27.15234375 30 29 C29 30 29 30 25.5 30.25 C17.59300087 30.09468395 11.45004548 27.46481385 5.73046875 22.0078125 C-0.02342203 15.33174058 -0.57501221 8.54532032 0 0 Z " fill="#58B038" transform="translate(19,66)"/>
<path d="M0 0 C1.65 0.33 3.3 0.66 5 1 C5 27.73 5 54.46 5 82 C2.525 82.495 2.525 82.495 0 83 C-1.72880189 81.27119811 -1.12599234 79.05097384 -1.13552856 76.74632263 C-1.13350433 75.99407913 -1.1314801 75.24183563 -1.12939453 74.46679688 C-1.13114685 73.67821793 -1.13289917 72.88963898 -1.13470459 72.0771637 C-1.13912358 69.4576704 -1.13618496 66.83824404 -1.1328125 64.21875 C-1.13348553 62.4065347 -1.13445554 60.59431948 -1.13571167 58.78210449 C-1.13718871 54.97891381 -1.1350339 51.17574656 -1.13037109 47.37255859 C-1.1246738 42.48621505 -1.12795278 37.59992643 -1.13394356 32.7135849 C-1.13754901 28.96994611 -1.13641066 25.22632045 -1.13381577 21.48268127 C-1.13314645 19.68046563 -1.13397507 17.87824882 -1.13629532 16.07603455 C-1.13882159 13.56172509 -1.13498162 11.04750583 -1.12939453 8.53320312 C-1.13141876 7.78095963 -1.13344299 7.02871613 -1.13552856 6.25367737 C-1.1142626 1.1142626 -1.1142626 1.1142626 0 0 Z " fill="#9D2349" transform="translate(117,13)"/>
<path d="M0 0 C1.65 0 3.3 0 5 0 C5 27.39 5 54.78 5 83 C3.35 83 1.7 83 0 83 C0 55.61 0 28.22 0 0 Z " fill="#9D2349" transform="translate(239,13)"/>
<path d="M0 0 C2.73083902 -0.13548815 5.45491807 -0.23429855 8.1875 -0.3125 C8.95642578 -0.35439453 9.72535156 -0.39628906 10.51757812 -0.43945312 C14.85933738 -0.53262392 16.49203009 -0.39234504 20.0546875 2.359375 C22 5 22 5 21.9375 7.5625 C21 10 21 10 19.8125 12 C18.73681777 14.07977752 18.73681777 14.07977752 19.6875 16.6875 C20.8397272 19.31822281 20.8397272 19.31822281 24 20 C24 20.99 24 21.98 24 23 C21.03 23 18.06 23 15 23 C12 17.25 12 17.25 12 15 C11.34 15 10.68 15 10 15 C10.33 15.763125 10.66 16.52625 11 17.3125 C12 20 12 20 12 23 C8.04 23 4.08 23 0 23 C0.33 21.68 0.66 20.36 1 19 C1.22288501 16.41343327 1.41314385 13.84047222 1.5625 11.25 C1.60568359 10.55261719 1.64886719 9.85523438 1.69335938 9.13671875 C1.79889596 7.42468078 1.8998991 5.71236439 2 4 C1.34 4 0.68 4 0 4 C0 2.68 0 1.36 0 0 Z M10 4 C10 5.98 10 7.96 10 10 C11.32 10 12.64 10 14 10 C14 8.35 14 6.7 14 5 C12.68 4.67 11.36 4.34 10 4 Z " fill="#9D2349" transform="translate(360,27)"/>
<path d="M0 0 C2.72977064 -0.08126109 5.4571017 -0.14061663 8.1875 -0.1875 C9.34088867 -0.22520508 9.34088867 -0.22520508 10.51757812 -0.26367188 C15.18812274 -0.32380764 18.21957455 -0.05424203 22 3 C24.97307695 7.45961542 24.62015709 11.77077414 24 17 C21.70537781 21.16431434 19.48102699 22.65199875 15 24 C12.33245787 23.98341425 9.82844231 23.87772175 7.1875 23.625 C6.49462891 23.56828125 5.80175781 23.5115625 5.08789062 23.453125 C3.39101554 23.31269396 1.69534752 23.15780593 0 23 C-0.33 22.01 -0.66 21.02 -1 20 C-0.34 19.67 0.32 19.34 1 19 C1.31241371 16.45058627 1.51303421 13.99638487 1.625 11.4375 C1.66367187 10.72658203 1.70234375 10.01566406 1.7421875 9.28320312 C1.83671783 7.52257575 1.91945817 5.76132272 2 4 C1.01 3.67 0.02 3.34 -1 3 C-0.67 2.01 -0.34 1.02 0 0 Z M10 4 C8.66098208 5.11126659 8.66098208 5.11126659 8.90234375 7.94140625 C8.91394531 9.13636719 8.92554688 10.33132812 8.9375 11.5625 C8.94652344 12.76003906 8.95554687 13.95757812 8.96484375 15.19140625 C8.97644531 16.11824219 8.98804688 17.04507813 9 18 C11.475 18.495 11.475 18.495 14 19 C16.44140066 16.45687431 16.99243527 15.06051786 17.4375 11.5 C17.28799231 7.96940098 17.28799231 7.96940098 15.1875 5.5625 C13.04117104 3.7093809 13.04117104 3.7093809 10 4 Z " fill="#9D2349" transform="translate(401,27)"/>
<path d="M0 0 C2.72977064 -0.08126109 5.4571017 -0.14061663 8.1875 -0.1875 C9.34088867 -0.22520508 9.34088867 -0.22520508 10.51757812 -0.26367188 C15.2036122 -0.32400708 18.1789294 -0.01777735 22 3 C25.16955197 6.93461624 25.53348798 10.02077887 25 15 C23.34101659 18.6497635 21.56415939 21.12412664 18 23 C11.88450374 24.37814 6.15236851 23.87890979 0 23 C0.33 21.68 0.66 20.36 1 19 C1.66 19 2.32 19 3 19 C2.88658363 16.68690295 2.75896193 14.37449815 2.625 12.0625 C2.55539062 10.77472656 2.48578125 9.48695312 2.4140625 8.16015625 C2.27742188 7.11730469 2.14078125 6.07445312 2 5 C1.34 4.67 0.68 4.34 0 4 C0 2.68 0 1.36 0 0 Z M10 4 C10 8.95 10 13.9 10 19 C11.65 19 13.3 19 15 19 C17.64751415 16.35248585 17.71520084 14.70238904 18 11 C17.1552144 7.71138905 17.1552144 7.71138905 16 5 C13.03 4.505 13.03 4.505 10 4 Z " fill="#9D2349" transform="translate(455,27)"/>
<path d="M0 0 C1.7890625 0.55078125 1.7890625 0.55078125 4 2 C4.83139636 3.72627371 5.65808692 5.45542413 6.43579102 7.20654297 C8.11627146 10.75097196 9.72664269 13.7229939 13 16 C20.18486767 17.55610654 27.83280697 16.19903867 35 15 C33.78850698 20.70864269 32.36683217 26.20946552 30.48828125 31.73828125 C29.93174802 34.31614316 30.15025011 35.52536252 31 38 C32.97746091 40.11364186 34.95012339 42.09497207 37.0625 44.0625 C39.13102829 45.99015236 41.06716603 47.92723235 43 50 C43 50.99 43 51.98 43 53 C40.04380781 54.1721449 37.08471211 55.33677476 34.125 56.5 C33.28324219 56.83386719 32.44148438 57.16773438 31.57421875 57.51171875 C30.76855469 57.82753906 29.96289062 58.14335938 29.1328125 58.46875 C28.38918457 58.76201172 27.64555664 59.05527344 26.87939453 59.35742188 C25 60 25 60 23 60 C22.90912109 61.39412109 22.90912109 61.39412109 22.81640625 62.81640625 C21.98418278 75.09490334 21.98418278 75.09490334 21 81 C16.19224215 81 12.54219541 77.70876532 8.625 75.11132812 C4.84607103 72.67998997 4.84607103 72.67998997 0.51171875 71.9375 C-3.14436615 73.48408646 -6.45044612 75.46161849 -9.8125 77.5625 C-10.50537109 77.98724609 -11.19824219 78.41199219 -11.91210938 78.84960938 C-13.61216951 79.89309456 -15.30665476 80.94565296 -17 82 C-17 81.01 -17 80.02 -17 79 C-14.54309317 76.7075079 -11.63134282 75.00603392 -8.8125 73.1875 C-8.04357422 72.65962891 -7.27464844 72.13175781 -6.48242188 71.58789062 C-0.78191558 67.87399854 -0.78191558 67.87399854 2.59375 68.41796875 C3.3878125 68.94003906 4.181875 69.46210937 5 70 C6.18091742 70.65329886 7.36476191 71.30132221 8.55078125 71.9453125 C9.80660235 72.66856025 11.06047984 73.39519216 12.3125 74.125 C12.95767578 74.49753906 13.60285156 74.87007813 14.26757812 75.25390625 C15.84675945 76.16632213 17.42361864 77.08275509 19 78 C19.02803711 77.16807129 19.02803711 77.16807129 19.05664062 76.31933594 C19.16442763 73.79268166 19.33153552 71.27330495 19.5 68.75 C19.54253906 67.44095703 19.54253906 67.44095703 19.5859375 66.10546875 C19.78362771 63.515727 20.04974868 61.42055743 21 59 C23.43154234 56.9220597 25.97511457 55.96039401 29 55 C29.9796875 54.65453125 30.959375 54.3090625 31.96875 53.953125 C33.22171875 53.60507813 33.22171875 53.60507813 34.5 53.25 C35.3559375 53.00765625 36.211875 52.7653125 37.09375 52.515625 C37.7228125 52.34546875 38.351875 52.1753125 39 52 C36.89505419 48.10448341 34.55782921 45.54305316 31.25 42.625 C27.0435318 38.45273073 27.0435318 38.45273073 26.6875 34.75 C27.120625 33.5125 27.55375 32.275 28 31 C28.68999551 28.68824338 29.377298 26.37568195 30.0625 24.0625 C30.70321254 22.04003727 31.34735571 20.01864397 32 18 C31.44650879 18.10884521 30.89301758 18.21769043 30.32275391 18.32983398 C24.29969841 19.39844061 18.01628486 20.50649128 12 19 C7.02805628 15.30688526 4.66561635 9.4180202 2 4 C1.34 3.67 0.68 3.34 0 3 C-0.38285156 4.07314453 -0.38285156 4.07314453 -0.7734375 5.16796875 C-2.0876888 8.20246618 -3.69496016 10.63188911 -5.625 13.3125 C-6.25664062 14.19550781 -6.88828125 15.07851563 -7.5390625 15.98828125 C-8.26222656 16.98408203 -8.26222656 16.98408203 -9 18 C-9.66 17.67 -10.32 17.34 -11 17 C-9.35634678 14.3528064 -7.70971327 11.70747957 -6.0625 9.0625 C-5.59392578 8.30775391 -5.12535156 7.55300781 -4.64257812 6.77539062 C-4.19462891 6.05673828 -3.74667969 5.33808594 -3.28515625 4.59765625 C-2.87144775 3.93258057 -2.45773926 3.26750488 -2.03149414 2.58227539 C-1 1 -1 1 0 0 Z " fill="#A8ACB4" transform="translate(179,14)"/>
<path d="M0 0 C1.13583456 3.71727674 0.66670026 5.47051709 -1 9 C-2.875 8.75 -2.875 8.75 -5 8 C-6.25 5.9375 -6.25 5.9375 -7 4 C-8.65 4 -10.3 4 -12 4 C-14.48887372 8.68493876 -13.85687773 11.9444214 -13 17 C-11.02 17.33 -9.04 17.66 -7 18 C-7 16.68 -7 15.36 -7 14 C-7.99 13.67 -8.98 13.34 -10 13 C-9.67 12.01 -9.34 11.02 -9 10 C-5.04 10 -1.08 10 3 10 C3 11.32 3 12.64 3 14 C2.34 14 1.68 14 1 14 C0.67 16.31 0.34 18.62 0 21 C-5.74452698 23.24176663 -10.39409192 24.00227234 -16.25 21.75 C-20.58219178 18.99315068 -20.58219178 18.99315068 -22 16 C-22.71568082 11.37016359 -22.4096704 7.92175841 -20.5 3.625 C-14.29670291 -2.88846195 -8.22399535 -2.34249048 0 0 Z " fill="#9D2349" transform="translate(327,28)"/>
<path d="M0 0 C6.6 0 13.2 0 20 0 C20.92538169 3.70152678 21.08174162 4.63458162 20 8 C18.35 8 16.7 8 15 8 C14.67 6.68 14.34 5.36 14 4 C12.68 4 11.36 4 10 4 C10 5.65 10 7.3 10 9 C11.98 9 13.96 9 16 9 C16.33 9.99 16.66 10.98 17 12 C16.67 12.66 16.34 13.32 16 14 C12.9375 14.625 12.9375 14.625 10 15 C10 16.32 10 17.64 10 19 C11.65 19 13.3 19 15 19 C15.33 17.68 15.66 16.36 16 15 C17.65 15 19.3 15 21 15 C21 17.64 21 20.28 21 23 C14.07 23 7.14 23 0 23 C0.33 21.68 0.66 20.36 1 19 C1.22288501 16.41343327 1.41314385 13.84047222 1.5625 11.25 C1.60568359 10.55261719 1.64886719 9.85523438 1.69335938 9.13671875 C1.79889596 7.42468078 1.8998991 5.71236439 2 4 C1.34 4 0.68 4 0 4 C0 2.68 0 1.36 0 0 Z " fill="#9D2349" transform="translate(282,27)"/>
<path d="M0 0 C3.96 0 7.92 0 12 0 C12 1.32 12 2.64 12 4 C11.34 4 10.68 4 10 4 C10.33 8.29 10.66 12.58 11 17 C12.65 17.33 14.3 17.66 16 18 C17.87824891 16.12175109 17.39102397 12.96064724 17.5625 10.4375 C17.64628906 9.23996094 17.73007812 8.04242188 17.81640625 6.80859375 C17.90728516 5.41833984 17.90728516 5.41833984 18 4 C17.01 4 16.02 4 15 4 C15 2.68 15 1.36 15 0 C18.63 0 22.26 0 26 0 C26 1.32 26 2.64 26 4 C25.01 4 24.02 4 23 4 C23.04640625 4.95261719 23.0928125 5.90523437 23.140625 6.88671875 C23.19476563 8.76810547 23.19476563 8.76810547 23.25 10.6875 C23.29640625 11.92886719 23.3428125 13.17023437 23.390625 14.44921875 C22.93571566 18.58434469 21.95604322 20.1343394 19 23 C14.84843667 24.38385444 11.01324904 24.50331226 6.75 23.4375 C3.94774694 21.13564927 2.81738522 18.43907263 2 15 C1.76735755 11.3173195 1.82012847 7.68403549 2 4 C1.01 3.67 0.02 3.34 -1 3 C-0.67 2.01 -0.34 1.02 0 0 Z " fill="#9D2349" transform="translate(332,27)"/>
<path d="M0 0 C3.63 0 7.26 0 11 0 C11.33 1.65 11.66 3.3 12 5 C11.525625 5.61875 11.05125 6.2375 10.5625 6.875 C8.282456 9.97585983 8.67505768 12.23066904 9 16 C9.33 16.99 9.66 17.98 10 19 C11.18162304 22.54486911 11.35038381 25.2859316 11 29 C9.9375 30.875 9.9375 30.875 8 32 C4.3125 32.6875 4.3125 32.6875 1 33 C-0.18681726 29.43954823 -0.09689832 26.56191663 -0.0625 22.8125 C-0.05347656 21.54019531 -0.04445312 20.26789062 -0.03515625 18.95703125 C-0.02355469 17.98121094 -0.01195312 17.00539063 0 16 C-0.99 15.67 -1.98 15.34 -3 15 C-4.1875 11.9375 -4.1875 11.9375 -5 9 C-3.68 9 -2.36 9 -1 9 C-1 8.34 -1 7.68 -1 7 C-3.97 7 -6.94 7 -10 7 C-10 6.67 -10 6.34 -10 6 C-8.865625 5.690625 -7.73125 5.38125 -6.5625 5.0625 C-3.21224901 4.37075469 -3.21224901 4.37075469 -2 3 C-1.34 3 -0.68 3 0 3 C0 2.01 0 1.02 0 0 Z " fill="#292544" transform="translate(186,39)"/>
<path d="M0 0 C2.97922593 -0.02683987 5.95821295 -0.04676037 8.9375 -0.0625 C9.78763672 -0.07087891 10.63777344 -0.07925781 11.51367188 -0.08789062 C12.32255859 -0.09111328 13.13144531 -0.09433594 13.96484375 -0.09765625 C14.7137085 -0.10289307 15.46257324 -0.10812988 16.23413086 -0.11352539 C18 0 18 0 19 1 C19.0983721 2.33043625 19.13078592 3.66593344 19.1328125 5 C19.13474609 6.2065625 19.13474609 6.2065625 19.13671875 7.4375 C19.13285156 8.283125 19.12898438 9.12875 19.125 10 C19.13080078 11.2684375 19.13080078 11.2684375 19.13671875 12.5625 C19.13542969 13.366875 19.13414063 14.17125 19.1328125 15 C19.13168457 15.7425 19.13055664 16.485 19.12939453 17.25 C19 19 19 19 18 20 C15.52836314 20.12682623 13.09709389 20.18520251 10.625 20.1875 C9.93921875 20.19974609 9.2534375 20.21199219 8.546875 20.22460938 C4.80703203 20.23552331 3.1900263 20.1266842 0 18 C-0.1875 14.875 -0.1875 14.875 0 12 C1.32 12 2.64 12 4 12 C4 11.34 4 10.68 4 10 C3.34 10 2.68 10 2 10 C2 9.34 2 8.68 2 8 C1.34 8 0.68 8 0 8 C0 5.36 0 2.72 0 0 Z M11 8 C11 9.32 11 10.64 11 12 C12.32 12 13.64 12 15 12 C15 11.34 15 10.68 15 10 C14.34 10 13.68 10 13 10 C13 9.34 13 8.68 13 8 C12.34 8 11.68 8 11 8 Z " fill="#9D2349" transform="translate(40,55)"/>
<path d="M0 0 C2.31 0 4.62 0 7 0 C12.03919988 11.71325469 12.03919988 11.71325469 13.125 16.1875 C13.558125 17.5796875 13.558125 17.5796875 14 19 C14.99 19.33 15.98 19.66 17 20 C17 20.99 17 21.98 17 23 C13.04 23 9.08 23 5 23 C4.67 22.01 4.34 21.02 4 20 C4.66 19.34 5.32 18.68 6 18 C3.69 17.67 1.38 17.34 -1 17 C-1 17.66 -1 18.32 -1 19 C-0.01 19.33 0.98 19.66 2 20 C2 20.99 2 21.98 2 23 C-1.96 23 -5.92 23 -10 23 C-9.67 21.68 -9.34 20.36 -9 19 C-8.34 19 -7.68 19 -7 19 C-6.82984375 18.46632813 -6.6596875 17.93265625 -6.484375 17.3828125 C-4.56536676 11.4828829 -2.35945761 5.73695531 0 0 Z M2 8 C1.67 9.32 1.34 10.64 1 12 C1.99 12 2.98 12 4 12 C3.34 10.68 2.68 9.36 2 8 Z " fill="#9D2349" transform="translate(436,27)"/>
<path d="M0 0 C0.79921875 0.19464844 1.5984375 0.38929687 2.421875 0.58984375 C3.02515625 0.74582031 3.6284375 0.90179687 4.25 1.0625 C4.4375 3.9375 4.4375 3.9375 4.25 7.0625 C3.26 7.7225 2.27 8.3825 1.25 9.0625 C0.26 8.7325 -0.73 8.4025 -1.75 8.0625 C-1.75 6.7425 -1.75 5.4225 -1.75 4.0625 C-3.07 4.0625 -4.39 4.0625 -5.75 4.0625 C-5.75 5.3825 -5.75 6.7025 -5.75 8.0625 C-4.14125 8.4028125 -4.14125 8.4028125 -2.5 8.75 C1.69462921 10.21812022 3.13586737 11.18659018 5.25 15.0625 C5.3125 18.1875 5.3125 18.1875 4.25 21.0625 C0.82372385 24.1772965 -2.37356535 24.46051564 -6.8125 24.30078125 C-9.34967237 23.98874997 -11.47116317 23.20191841 -13.75 22.0625 C-13.75 19.7525 -13.75 17.4425 -13.75 15.0625 C-12.1 15.0625 -10.45 15.0625 -8.75 15.0625 C-8.42 16.3825 -8.09 17.7025 -7.75 19.0625 C-6.1 19.0625 -4.45 19.0625 -2.75 19.0625 C-2.75 18.0725 -2.75 17.0825 -2.75 16.0625 C-4.35875 15.7221875 -4.35875 15.7221875 -6 15.375 C-10.19462921 13.90687978 -11.63586737 12.93840982 -13.75 9.0625 C-13.75 5.9375 -13.75 5.9375 -12.75 3.0625 C-8.85414711 -0.83335289 -5.19167025 -1.29791756 0 0 Z " fill="#9D2349" transform="translate(273.75,26.9375)"/>
<path d="M0 0 C1.01610352 -0.04350586 1.01610352 -0.04350586 2.05273438 -0.08789062 C5.30271043 -0.12919042 7.37360688 0.11619224 10.1484375 1.8515625 C12.24703509 5.2071881 12.16377232 8.17500643 12 12 C11.99033203 12.68900391 11.98066406 13.37800781 11.97070312 14.08789062 C11.85636475 19.14363525 11.85636475 19.14363525 10.6875 20.3125 C9.35706375 20.4108721 8.02156656 20.44328592 6.6875 20.4453125 C5.883125 20.44660156 5.07875 20.44789062 4.25 20.44921875 C3.404375 20.44535156 2.55875 20.44148438 1.6875 20.4375 C0.841875 20.44136719 -0.00375 20.44523437 -0.875 20.44921875 C-1.679375 20.44792969 -2.48375 20.44664063 -3.3125 20.4453125 C-4.055 20.44418457 -4.7975 20.44305664 -5.5625 20.44189453 C-7.3125 20.3125 -7.3125 20.3125 -8.3125 19.3125 C-8.4108721 17.98206375 -8.44328592 16.64656656 -8.4453125 15.3125 C-8.44660156 14.508125 -8.44789062 13.70375 -8.44921875 12.875 C-8.44535156 12.029375 -8.44148438 11.18375 -8.4375 10.3125 C-8.44136719 9.466875 -8.44523437 8.62125 -8.44921875 7.75 C-8.44792969 6.945625 -8.44664063 6.14125 -8.4453125 5.3125 C-8.44418457 4.57 -8.44305664 3.8275 -8.44189453 3.0625 C-8.12202027 -1.26364846 -3.34928075 0.04699646 0 0 Z M0.6875 3.3125 C-1.06306659 5.9774267 -1.06306659 5.9774267 -2.3125 9.3125 C-1.62607916 12.62720658 -1.62607916 12.62720658 -0.3125 15.3125 C1.0075 15.3125 2.3275 15.3125 3.6875 15.3125 C5.08011878 12.64028425 5.08011878 12.64028425 5.6875 9.3125 C4.0143025 5.92627224 4.0143025 5.92627224 1.6875 3.3125 C1.3575 3.3125 1.0275 3.3125 0.6875 3.3125 Z " fill="#9D2349" transform="translate(68.3125,33.6875)"/>
<path d="M0 0 C1.98 0 3.96 0 6 0 C6 3.3 6 6.6 6 10 C8.64 10 11.28 10 14 10 C14 6.7 14 3.4 14 0 C15.98 0 17.96 0 20 0 C20 6.27 20 12.54 20 19 C13.4 19 6.8 19 0 19 C0 12.73 0 6.46 0 0 Z " fill="#9D2349" transform="translate(81,45)"/>
<path d="M0 0 C1.65 0.33 3.3 0.66 5 1 C5.33 2.98 5.66 4.96 6 7 C6.33 4.69 6.66 2.38 7 0 C8.65 0.33 10.3 0.66 12 1 C12 1.99 12 2.98 12 4 C12.99 4 13.98 4 15 4 C15 5.65 15 7.3 15 9 C12.69 9 10.38 9 8 9 C8 9.66 8 10.32 8 11 C10.31 11 12.62 11 15 11 C15 12.65 15 14.3 15 16 C14.01 16 13.02 16 12 16 C11.67 17.32 11.34 18.64 11 20 C9.68 20 8.36 20 7 20 C7 17.69 7 15.38 7 13 C6.34 13 5.68 13 5 13 C5 15.31 5 17.62 5 20 C3.35 20 1.7 20 0 20 C0 18.68 0 17.36 0 16 C-1.32 16 -2.64 16 -4 16 C-4 14.35 -4 12.7 -4 11 C-1.69 11 0.62 11 3 11 C3 10.34 3 9.68 3 9 C0.69 9 -1.62 9 -4 9 C-4 7.35 -4 5.7 -4 4 C-2.68 4 -1.36 4 0 4 C0 2.68 0 1.36 0 0 Z " fill="#9D2349" transform="translate(64,55)"/>
<path d="M0 0 C4.65422701 -0.37233816 8.05195253 -0.46507989 12.3125 1.625 C15.23823295 4.21053144 17.14098656 6.56797519 19 10 C19 11.32 19 12.64 19 14 C22.63 14 26.26 14 30 14 C30 15.65 30 17.3 30 19 C27.39555652 19.05394705 24.79223002 19.09364469 22.1875 19.125 C21.44951172 19.14175781 20.71152344 19.15851562 19.95117188 19.17578125 C16.08753574 19.21074628 14.29096332 19.19397555 11 17 C10.773125 15.865625 10.54625 14.73125 10.3125 13.5625 C9.41731169 9.97645561 9.41731169 9.97645561 7.09765625 8.875 C5.0786564 8.13694733 3.08762165 7.50976808 1 7 C0.67 4.69 0.34 2.38 0 0 Z " fill="#8C428D" transform="translate(71,24)"/>
<path d="M0 0 C0.28951652 5.59731932 0.18452849 9.1683016 -3 14 C-6.47822112 17.47822112 -9.12226395 18.54625711 -14 19 C-14 22.63 -14 26.26 -14 30 C-15.65 30 -17.3 30 -19 30 C-19.05394705 27.39555652 -19.09364469 24.79223002 -19.125 22.1875 C-19.14175781 21.44951172 -19.15851563 20.71152344 -19.17578125 19.95117188 C-19.21074628 16.08753574 -19.19397555 14.29096332 -17 11 C-15.2984375 10.6596875 -15.2984375 10.6596875 -13.5625 10.3125 C-9.97582942 9.42738774 -9.97582942 9.42738774 -8.9453125 7.1328125 C-8.4496717 5.6969871 -8.00064466 4.24400334 -7.60546875 2.77734375 C-6.3740025 -0.83760558 -3.28551541 -0.08646093 0 0 Z " fill="#F3C350" transform="translate(90,66)"/>
<path d="M0 0 C1.65 0.33 3.3 0.66 5 1 C5.08119503 3.24940295 5.13927819 5.49964871 5.1875 7.75 C5.23970703 9.62945313 5.23970703 9.62945313 5.29296875 11.546875 C4.98388183 15.18997953 4.60977787 16.50939007 2 19 C0.2365625 19.680625 0.2365625 19.680625 -1.5625 20.375 C-5.2524172 21.6548627 -5.2524172 21.6548627 -6.3125 25.0625 C-6.539375 26.031875 -6.76625 27.00125 -7 28 C-9 30 -9 30 -11.625 30.125 C-12.40875 30.08375 -13.1925 30.0425 -14 30 C-14.35446263 25.01783075 -14.54177269 21.14605761 -12.375 16.5625 C-9.75244708 13.73290343 -7.59072773 12.37517232 -4 11 C-3.01 11 -2.02 11 -1 11 C-0.67 7.37 -0.34 3.74 0 0 Z " fill="#0097D3" transform="translate(44,13)"/>
<path d="M0 0 C2.60478883 -0.0809313 5.20706653 -0.14045434 7.8125 -0.1875 C8.55048828 -0.21263672 9.28847656 -0.23777344 10.04882812 -0.26367188 C15.49899415 -0.33765603 15.49899415 -0.33765603 17.96484375 1.32421875 C19 3 19 3 19.75 6 C20.76115865 9.36253465 20.76115865 9.36253465 24.5 10.6875 C25.655 11.120625 26.81 11.55375 28 12 C30 15 30 15 29.625 17.1875 C29.315625 18.0846875 29.315625 18.0846875 29 19 C22.56573585 19.45152731 19.26039007 18.81636142 14 15 C11.66757839 11.89010452 10.95602763 9.82411053 10 6 C6.7 5.67 3.4 5.34 0 5 C0 3.35 0 1.7 0 0 Z " fill="#F78927" transform="translate(19,66)"/>
<path d="M0 0 C3.3 0 6.6 0 10 0 C10 1.65 10 3.3 10 5 C8.68 5 7.36 5 6 5 C6.15597656 5.88042969 6.31195313 6.76085938 6.47265625 7.66796875 C6.66730469 8.82941406 6.86195313 9.99085937 7.0625 11.1875 C7.25972656 12.33605469 7.45695313 13.48460937 7.66015625 14.66796875 C8 18 8 18 7 23 C10.96 23 14.92 23 19 23 C15 26 15 26 12.375 25.875 C11.26125 25.58625 10.1475 25.2975 9 25 C8.17371094 24.80019531 7.34742188 24.60039063 6.49609375 24.39453125 C-0.4449838 22.56580485 -0.4449838 22.56580485 -2.80859375 20.15625 C-4.87150488 16.42271904 -3.86408885 13.03241465 -3 9 C-2.11693698 5.93933132 -1.09378308 2.99601452 0 0 Z " fill="#212848" transform="translate(167,49)"/>
<path d="M0 0 C4.29 0 8.58 0 13 0 C13 1.32 13 2.64 13 4 C12.01 4 11.02 4 10 4 C10 8.95 10 13.9 10 19 C10.99 19.33 11.98 19.66 13 20 C13 20.99 13 21.98 13 23 C8.71 23 4.42 23 0 23 C0.33 21.68 0.66 20.36 1 19 C1.66 19 2.32 19 3 19 C3 14.05 3 9.1 3 4 C2.01 4 1.02 4 0 4 C0 2.68 0 1.36 0 0 Z " fill="#9D2349" transform="translate(385,27)"/>
<path d="M0 0 C6.27 0 12.54 0 19 0 C19 6.6 19 13.2 19 20 C12.73 20 6.46 20 0 20 C0 13.4 0 6.8 0 0 Z M3 5 C2.06869855 8.41477198 1.72280362 10.86041488 2.5625 14.3125 C4.78150628 16.91742042 6.6596495 17.42186241 10 18 C13.40060303 17.25806278 13.40060303 17.25806278 16 15 C17.01461499 11.51226097 17.35272165 9.18642736 16.3125 5.6875 C14.71994784 3.63993294 13.42867643 2.88315507 11 2 C7.27472933 2 5.87924492 2.65114231 3 5 Z " fill="#9D2349" transform="translate(50,13)"/>
<path d="M0 0 C1.32 0.99 2.64 1.98 4 3 C1.04380781 4.1721449 -1.91528789 5.33677476 -4.875 6.5 C-5.71675781 6.83386719 -6.55851562 7.16773437 -7.42578125 7.51171875 C-8.63427734 7.98544922 -8.63427734 7.98544922 -9.8671875 8.46875 C-10.98262939 8.90864258 -10.98262939 8.90864258 -12.12060547 9.35742188 C-14 10 -14 10 -16 10 C-16.09087891 11.39412109 -16.09087891 11.39412109 -16.18359375 12.81640625 C-17.01581722 25.09490334 -17.01581722 25.09490334 -18 31 C-22.80775785 31 -26.45780459 27.70876532 -30.375 25.11132812 C-34.15392897 22.67998997 -34.15392897 22.67998997 -38.48828125 21.9375 C-42.14436615 23.48408646 -45.45044612 25.46161849 -48.8125 27.5625 C-49.50537109 27.98724609 -50.19824219 28.41199219 -50.91210938 28.84960938 C-52.61216951 29.89309456 -54.30665476 30.94565296 -56 32 C-56 31.01 -56 30.02 -56 29 C-53.54309317 26.7075079 -50.63134282 25.00603392 -47.8125 23.1875 C-47.04357422 22.65962891 -46.27464844 22.13175781 -45.48242188 21.58789062 C-39.78191558 17.87399854 -39.78191558 17.87399854 -36.40625 18.41796875 C-35.6121875 18.94003906 -34.818125 19.46210937 -34 20 C-32.81908258 20.65329886 -31.63523809 21.30132221 -30.44921875 21.9453125 C-29.19339765 22.66856025 -27.93952016 23.39519216 -26.6875 24.125 C-26.04232422 24.49753906 -25.39714844 24.87007812 -24.73242188 25.25390625 C-23.15324055 26.16632213 -21.57638136 27.08275509 -20 28 C-19.98130859 27.44538086 -19.96261719 26.89076172 -19.94335938 26.31933594 C-19.83557237 23.79268166 -19.66846448 21.27330495 -19.5 18.75 C-19.45746094 17.44095703 -19.45746094 17.44095703 -19.4140625 16.10546875 C-19.21637229 13.515727 -18.95025132 11.42055743 -18 9 C-15.56845766 6.9220597 -13.02488543 5.96039401 -10 5 C-9.0203125 4.65453125 -8.040625 4.3090625 -7.03125 3.953125 C-5.77828125 3.60507813 -5.77828125 3.60507813 -4.5 3.25 C-3.6440625 3.00765625 -2.788125 2.7653125 -1.90625 2.515625 C-1.2771875 2.34546875 -0.648125 2.1753125 0 2 C0 1.34 0 0.68 0 0 Z " fill="#A1A5AE" transform="translate(218,64)"/>
<path d="M0 0 C1.65 0.33 3.3 0.66 5 1 C5 2.32 5 3.64 5 5 C6.32 5.33 7.64 5.66 9 6 C9 6.66 9 7.32 9 8 C8.34 8 7.68 8 7 8 C7 11.3 7 14.6 7 18 C3.37 18 -0.26 18 -4 18 C-4.33 13.71 -4.66 9.42 -5 5 C-3.68 5 -2.36 5 -1 5 C-0.67 3.35 -0.34 1.7 0 0 Z " fill="#666A81" transform="translate(178,49)"/>
<path d="M0 0 C3.3 0 6.6 0 10 0 C10 6.27 10 12.54 10 19 C6.7 19 3.4 19 0 19 C0.66 17.02 1.32 15.04 2 13 C1.34 12.34 0.68 11.68 0 11 C0.22385722 8.98528502 0.45418316 6.96854744 0.80859375 4.97265625 C1.15535648 2.7887865 1.15535648 2.7887865 0 0 Z " fill="#9D2349" transform="translate(28,45)"/>
<path d="M0 0 C2 1 2 1 3.125 4.0625 C3.41375 5.031875 3.7025 6.00125 4 7 C4.66 6.67 5.32 6.34 6 6 C6 7.32 6 8.64 6 10 C6.99 9.01 7.98 8.02 9 7 C9.33 7.33 9.66 7.66 10 8 C10.66 7.34 11.32 6.68 12 6 C12 6.66 12 7.32 12 8 C13.0725 7.835 14.145 7.67 15.25 7.5 C19 7 19 7 23 7 C23.66 7.66 24.32 8.32 25 9 C25.99 9 26.98 9 28 9 C28.99 10.485 28.99 10.485 30 12 C29.67 10.35 29.34 8.7 29 7 C29.66 7 30.32 7 31 7 C31.66 6.34 32.32 5.68 33 5 C33.05422947 6.4370809 33.09289723 7.87475462 33.125 9.3125 C33.14820313 10.11300781 33.17140625 10.91351563 33.1953125 11.73828125 C33 14 33 14 31 17 C30.20335937 16.48308594 29.40671875 15.96617188 28.5859375 15.43359375 C27.52632812 14.77488281 26.46671875 14.11617187 25.375 13.4375 C24.33085937 12.77621094 23.28671875 12.11492187 22.2109375 11.43359375 C18.43430585 9.74743339 16.91057717 9.79354534 13 11 C10.20642289 12.36494254 10.20642289 12.36494254 7.625 14.0625 C6.31402344 14.88427734 6.31402344 14.88427734 4.9765625 15.72265625 C3.99816406 16.35494141 3.99816406 16.35494141 3 17 C0.84940691 13.46813168 0.6202272 10.33712007 0.375 6.25 C0.30023438 5.07953125 0.22546875 3.9090625 0.1484375 2.703125 C0.09945312 1.81109375 0.05046875 0.9190625 0 0 Z " fill="#3C425E" transform="translate(163,70)"/>
<path d="M0 0 C7 0 7 0 9.0625 1.625 C10.37474447 4.94935266 9.14755552 6.69233996 8 10 C8.350625 10.86625 8.70125 11.7325 9.0625 12.625 C10 15 10 15 9.0625 17.3125 C7 19 7 19 0 19 C0 12.73 0 6.46 0 0 Z " fill="#9D2349" transform="translate(19,45)"/>
<path d="M0 0 C1.216875 -0.04125 2.43375 -0.0825 3.6875 -0.125 C4.71423828 -0.15980469 4.71423828 -0.15980469 5.76171875 -0.1953125 C8 0 8 0 10.359375 1.03125 C13.67660316 2.24822128 16.06301524 1.98995206 19.5625 1.625 C23.08941895 1.27434679 26.45036284 1 30 1 C30 2.98 30 4.96 30 7 C29.34 7 28.68 7 28 7 C28.33 8.65 28.66 10.3 29 12 C27.29159719 10.36587557 26.06546953 9.13093906 25 7 C24.34 7.66 23.68 8.32 23 9 C22.34 8.34 21.68 7.68 21 7 C17.01478656 6.24807294 13.05465341 5.65245828 9 6 C8.34 6.66 7.68 7.32 7 8 C6.67 7.34 6.34 6.68 6 6 C5.01 6.99 4.02 7.98 3 9 C3 7.68 3 6.36 3 5 C2.01 5.495 2.01 5.495 1 6 C0.67 4.02 0.34 2.04 0 0 Z " fill="#797F91" transform="translate(165,72)"/>
<path d="M0 0 C1.32 0.33 2.64 0.66 4 1 C6.68149993 0.61432869 6.68149993 0.61432869 9 0 C9.33 1.98 9.66 3.96 10 6 C10.99 4.02 11.98 2.04 13 0 C14.8125 0.125 14.8125 0.125 17 1 C18.95320589 4.20883825 20 6.2205439 20 10 C19.01 10 18.02 10 17 10 C17 9.34 17 8.68 17 8 C15.68 8 14.36 8 13 8 C13 8.66 13 9.32 13 10 C9.625 10.125 9.625 10.125 6 10 C5.34 9.34 4.68 8.68 4 8 C3.67 8.66 3.34 9.32 3 10 C2.01 10 1.02 10 0 10 C0 6.7 0 3.4 0 0 Z " fill="#B28D5C" transform="translate(430,71)"/>
<path d="M0 0 C0.495 0.99 0.495 0.99 1 2 C-0.88052138 7.08001955 -3.18183874 11.13377797 -7 15 C-13.75881308 16.62725384 -20.29436929 15.46164799 -27 14 C-26.62746094 15.02480469 -26.25492188 16.04960938 -25.87109375 17.10546875 C-25.39258981 18.46592113 -24.91476062 19.82661096 -24.4375 21.1875 C-24.19064453 21.86103516 -23.94378906 22.53457031 -23.68945312 23.22851562 C-22.31819579 27.18777976 -21.36922344 30.05457283 -23 34 C-25.28515625 36.67578125 -25.28515625 36.67578125 -28.0625 39.3125 C-28.98160156 40.19550781 -29.90070313 41.07851563 -30.84765625 41.98828125 C-31.55792969 42.65214844 -32.26820313 43.31601562 -33 44 C-33 41 -33 41 -31.03125 38.73828125 C-30.1959375 37.93777344 -29.360625 37.13726562 -28.5 36.3125 C-27.6646875 35.50425781 -26.829375 34.69601563 -25.96875 33.86328125 C-25.3190625 33.24839844 -24.669375 32.63351563 -24 32 C-25.91962047 24.48148651 -28.26482808 17.26235304 -31 10 C-19.615 10.99 -19.615 10.99 -8 12 C-5.36 8.04 -2.72 4.08 0 0 Z " fill="#61687D" transform="translate(178,19)"/>
<path d="M0 0 C2.31 0 4.62 0 7 0 C6.39816251 2.02045442 5.72693904 4.02111039 5 6 C4.01 6.495 4.01 6.495 3 7 C3 7.99 3 8.98 3 10 C2.36485174 12.34210921 1.7013284 14.67684969 1 17 C1.99 17.33 2.98 17.66 4 18 C5.35622245 18.96873032 6.69417053 19.96434215 8 21 C7.01 21.33 6.02 21.66 5 22 C7.475 22.99 7.475 22.99 10 24 C10 24.33 10 24.66 10 25 C6.37 24.67 2.74 24.34 -1 24 C-2.75460022 19.50383693 -3.44688385 15.82634558 -3 11 C-2 9.66666667 -1 8.33333333 0 7 C0.25063732 3.33285151 0.25063732 3.33285151 0 0 Z " fill="#787F91" transform="translate(197,37)"/>
<path d="M0 0 C0.74886475 0.00523682 1.49772949 0.01047363 2.26928711 0.01586914 C3.07817383 0.0190918 3.88706055 0.02231445 4.72045898 0.02563477 C5.5705957 0.03401367 6.42073242 0.04239258 7.29663086 0.05102539 C8.15063477 0.05553711 9.00463867 0.06004883 9.88452148 0.06469727 C12.00108749 0.07652166 14.11761771 0.0944577 16.23413086 0.11352539 C16.61631853 1.76967196 16.94808188 3.43809563 17.23413086 5.11352539 C16.23413086 6.11352539 16.23413086 6.11352539 14.46826172 6.22705078 C13.71939697 6.22181396 12.97053223 6.21657715 12.19897461 6.21118164 C11.39008789 6.20795898 10.58120117 6.20473633 9.74780273 6.20141602 C8.89766602 6.19303711 8.0475293 6.1846582 7.17163086 6.17602539 C6.31762695 6.17151367 5.46362305 6.16700195 4.58374023 6.16235352 C2.46717422 6.15052912 0.35064401 6.13259308 -1.76586914 6.11352539 C-2.14805681 4.45737882 -2.47982016 2.78895515 -2.76586914 1.11352539 C-1.76586914 0.11352539 -1.76586914 0.11352539 0 0 Z " fill="#9D2349" transform="translate(41.765869140625,47.886474609375)"/>
<path d="M0 0 C0.74886475 0.00523682 1.49772949 0.01047363 2.26928711 0.01586914 C3.07817383 0.0190918 3.88706055 0.02231445 4.72045898 0.02563477 C5.5705957 0.03401367 6.42073242 0.04239258 7.29663086 0.05102539 C8.15063477 0.05553711 9.00463867 0.06004883 9.88452148 0.06469727 C12.00108749 0.07652166 14.11761771 0.0944577 16.23413086 0.11352539 C16.61631853 1.76967196 16.94808188 3.43809563 17.23413086 5.11352539 C16.23413086 6.11352539 16.23413086 6.11352539 14.46826172 6.22705078 C13.71939697 6.22181396 12.97053223 6.21657715 12.19897461 6.21118164 C11.39008789 6.20795898 10.58120117 6.20473633 9.74780273 6.20141602 C8.89766602 6.19303711 8.0475293 6.1846582 7.17163086 6.17602539 C6.31762695 6.17151367 5.46362305 6.16700195 4.58374023 6.16235352 C2.46717422 6.15052912 0.35064401 6.13259308 -1.76586914 6.11352539 C-2.14805681 4.45737882 -2.47982016 2.78895515 -2.76586914 1.11352539 C-1.76586914 0.11352539 -1.76586914 0.11352539 0 0 Z " fill="#9D2349" transform="translate(41.765869140625,40.886474609375)"/>
<path d="M0 0 C0.69738281 0.01804688 1.39476562 0.03609375 2.11328125 0.0546875 C3.82611539 0.10161446 5.53823824 0.17335395 7.25 0.25 C7.63218767 1.90614657 7.96395102 3.57457024 8.25 5.25 C7.25 6.25 7.25 6.25 5.48413086 6.36352539 C4.73526611 6.35828857 3.98640137 6.35305176 3.21484375 6.34765625 C2.40595703 6.34443359 1.59707031 6.34121094 0.76367188 6.33789062 C-0.08646484 6.32951172 -0.93660156 6.32113281 -1.8125 6.3125 C-2.66650391 6.30798828 -3.52050781 6.30347656 -4.40039062 6.29882812 C-6.51695663 6.28700373 -8.63348685 6.26906769 -10.75 6.25 C-11.08 5.59 -11.41 4.93 -11.75 4.25 C-8.36399708 -0.18322032 -5.23938601 -0.25751236 0 0 Z " fill="#9D2349" transform="translate(50.75,33.75)"/>
<path d="M0 0 C4 4 8 8 12 12 C11.67 12.99 11.34 13.98 11 15 C8.12890625 16.421875 8.12890625 16.421875 4.5625 17.75 C3.38816406 18.19859375 2.21382812 18.6471875 1.00390625 19.109375 C-2 20 -2 20 -4 19 C-1.03 16.525 -1.03 16.525 2 14 C1.34 13.34 0.68 12.68 0 12 C1.32 11.67 2.64 11.34 4 11 C1.525 10.01 1.525 10.01 -1 9 C-0.01 8.34 0.98 7.68 2 7 C0.68 6.34 -0.64 5.68 -2 5 C-1.34 5 -0.68 5 0 5 C0 3.35 0 1.7 0 0 Z " fill="#383F5B" transform="translate(201,50)"/>
<path d="M0 0 C3.63 0 7.26 0 11 0 C11.33 1.65 11.66 3.3 12 5 C10 7 10 7 7.93701172 7.22705078 C6.69588623 7.21134033 6.69588623 7.21134033 5.4296875 7.1953125 C4.53378906 7.18886719 3.63789063 7.18242188 2.71484375 7.17578125 C1.77769531 7.15902344 0.84054688 7.14226563 -0.125 7.125 C-1.06988281 7.11597656 -2.01476562 7.10695313 -2.98828125 7.09765625 C-5.32577292 7.07404522 -7.66276123 7.04111516 -10 7 C-10 6.67 -10 6.34 -10 6 C-8.865625 5.690625 -7.73125 5.38125 -6.5625 5.0625 C-3.21224901 4.37075469 -3.21224901 4.37075469 -2 3 C-1.34 3 -0.68 3 0 3 C0 2.01 0 1.02 0 0 Z " fill="#232A4A" transform="translate(186,39)"/>
<path d="M0 0 C2.45669601 2.45669601 3.06709106 4.53216913 4.1875 7.8125 C4.55230469 8.85019531 4.91710937 9.88789062 5.29296875 10.95703125 C6.0456061 14.19628261 6.10484655 15.88349888 5 19 C3.44140625 20.87890625 3.44140625 20.87890625 1.5625 22.5625 C-1.00538267 24.88378016 -2.61211066 26.81273653 -4 30 C-3.07316406 30.33773437 -2.14632812 30.67546875 -1.19140625 31.0234375 C0.00613281 31.46945313 1.20367187 31.91546875 2.4375 32.375 C3.63246094 32.81585938 4.82742187 33.25671875 6.05859375 33.7109375 C9 35 9 35 10 37 C3.53287812 35.83805848 -2.09622349 33.8751252 -8 31 C-6.12625411 27.25250821 -3.82296472 24.88637039 -0.75 22.125 C2.61339672 18.95349164 2.61339672 18.95349164 3.125 14.375 C2.40208033 12.20624099 1.67339306 10.03939134 0.9375 7.875 C0.01596927 5.04897244 -0.17325184 2.94528126 0 0 Z " fill="#BFBFC3" transform="translate(152,34)"/>
<path d="M0 0 C-0.433125 1.918125 -0.433125 1.918125 -0.875 3.875 C-1.04128906 4.7 -1.20757812 5.525 -1.37890625 6.375 C-2 9 -2 9 -2.96484375 11.4375 C-3.95193339 14.27595132 -4.40484851 16.0014517 -4 19 C-1.42310968 22.33479923 1.34607114 25.00579627 4.5234375 27.75 C5.34070313 28.4925 6.15796875 29.235 7 30 C7 30.66 7 31.32 7 32 C6.34 32 5.68 32 5 32 C3.44921875 30.42578125 3.44921875 30.42578125 1.6875 28.3125 C-0.40479878 25.81584685 -2.2675554 23.78772464 -4.8359375 21.75 C-7 19 -7 19 -7.02319336 17.10424805 C-6.59149494 14.90050348 -6.00189392 12.82443018 -5.3125 10.6875 C-5.09916016 9.94693359 -4.88582031 9.20636719 -4.66601562 8.44335938 C-4.13696338 6.6210683 -3.5719162 4.80929624 -3 3 C-8.28 3 -13.56 3 -19 3 C-13.43482689 -0.71011541 -6.49854458 -0.11604544 0 0 Z " fill="#AAACB4" transform="translate(209,33)"/>
<path d="M0 0 C0.144375 0.639375 0.28875 1.27875 0.4375 1.9375 C0.81007181 3.97545146 0.81007181 3.97545146 2 5 C1.71269945 7.33944736 1.38063221 9.6739143 1 12 C-1.8125 12.625 -1.8125 12.625 -5 13 C-5.99 12.34 -6.98 11.68 -8 11 C-8.5 8.1875 -8.5 8.1875 -8 5 C-3.97826087 0 -3.97826087 0 0 0 Z M-5 6 C-4.67 7.32 -4.34 8.64 -4 10 C-3.01 9.67 -2.02 9.34 -1 9 C-1 8.01 -1 7.02 -1 6 C-2.32 6 -3.64 6 -5 6 Z " fill="#B28D5C" transform="translate(342,68)"/>
<path d="M0 0 C6.0546875 -0.1953125 6.0546875 -0.1953125 8 0 C8.66 0.66 9.32 1.32 10 2 C9.75 5.5625 9.75 5.5625 9 9 C6.04335481 10.4783226 3.25770263 10.06032783 0 10 C0 6.7 0 3.4 0 0 Z M3 3 C3 4.32 3 5.64 3 7 C4.32 6.67 5.64 6.34 7 6 C7 5.01 7 4.02 7 3 C5.68 3 4.36 3 3 3 Z " fill="#B28D5C" transform="translate(408,71)"/>
<path d="M0 0 C1.65 0 3.3 0 5 0 C4.67 2.97 4.34 5.94 4 9 C7.74691447 10.39770584 7.74691447 10.39770584 10 9 C10.23428313 4.2102679 10.23428313 4.2102679 8 0 C9.65 0 11.3 0 13 0 C13.33 0.99 13.66 1.98 14 3 C13.34 3 12.68 3 12 3 C12 6.3 12 9.6 12 13 C8.37 13 4.74 13 1 13 C0.67 8.71 0.34 4.42 0 0 Z " fill="#C7C8D0" transform="translate(173,54)"/>
<path d="M0 0 C4.50703648 1.50234549 6.41112851 5.11309355 8.8125 8.9375 C9.23208984 9.57107422 9.65167969 10.20464844 10.08398438 10.85742188 C11.14420878 12.51849833 12.08160364 14.2564981 13 16 C12.67 16.99 12.34 17.98 12 19 C10.95199219 17.39318359 10.95199219 17.39318359 9.8828125 15.75390625 C8.96378565 14.35661033 8.04450147 12.95948364 7.125 11.5625 C6.66480469 10.85544922 6.20460937 10.14839844 5.73046875 9.41992188 C5.28574219 8.74638672 4.84101563 8.07285156 4.3828125 7.37890625 C3.77010498 6.44413452 3.77010498 6.44413452 3.14501953 5.49047852 C2.05314374 3.84455373 2.05314374 3.84455373 0 3 C-0.25523437 3.71542969 -0.51046875 4.43085938 -0.7734375 5.16796875 C-2.0876888 8.20246618 -3.69496016 10.63188911 -5.625 13.3125 C-6.25664062 14.19550781 -6.88828125 15.07851563 -7.5390625 15.98828125 C-8.26222656 16.98408203 -8.26222656 16.98408203 -9 18 C-9.66 17.67 -10.32 17.34 -11 17 C-9.35634678 14.3528064 -7.70971327 11.70747957 -6.0625 9.0625 C-5.59392578 8.30775391 -5.12535156 7.55300781 -4.64257812 6.77539062 C-4.19462891 6.05673828 -3.74667969 5.33808594 -3.28515625 4.59765625 C-2.87144775 3.93258057 -2.45773926 3.26750488 -2.03149414 2.58227539 C-1 1 -1 1 0 0 Z " fill="#788091" transform="translate(179,14)"/>
<path d="M0 0 C0.99 0 1.98 0 3 0 C3.33 0.66 3.66 1.32 4 2 C4.33 1.34 4.66 0.68 5 0 C6.32 0 7.64 0 9 0 C9 2.97 9 5.94 9 9 C7.68 9 6.36 9 5 9 C4.67 8.67 4.34 8.34 4 8 C3.67 8.66 3.34 9.32 3 10 C2.01 10 1.02 10 0 10 C0 6.7 0 3.4 0 0 Z " fill="#B28D5C" transform="translate(346,71)"/>
<path d="M0 0 C2.33944736 0.28730055 4.6739143 0.61936779 7 1 C7.77842938 4.40562852 8.09978121 7.50765756 8 11 C7.443125 10.649375 6.88625 10.29875 6.3125 9.9375 C3.46113217 8.78154007 1.91482778 9.19032562 -1 10 C-1.02689216 8.52093108 -1.04634621 7.04172517 -1.0625 5.5625 C-1.07410156 4.73878906 -1.08570313 3.91507813 -1.09765625 3.06640625 C-1 1 -1 1 0 0 Z M3 3 C3 3.66 3 4.32 3 5 C3.66 4.67 4.32 4.34 5 4 C4.34 3.67 3.68 3.34 3 3 Z " fill="#B28D5C" transform="translate(289,56)"/>
<path d="M0 0 C1.27875 -0.061875 2.5575 -0.12375 3.875 -0.1875 C4.95394531 -0.23970703 4.95394531 -0.23970703 6.0546875 -0.29296875 C6.69664062 -0.19628906 7.33859375 -0.09960938 8 0 C10 3 10 3 9.8125 5.5625 C9 8 9 8 6 10 C2.8125 10.125 2.8125 10.125 0 10 C0 6.7 0 3.4 0 0 Z M3 3 C3 4.32 3 5.64 3 7 C3.99 7 4.98 7 6 7 C6.33 6.01 6.66 5.02 7 4 C5.68 3.67 4.36 3.34 3 3 Z " fill="#B28D5C" transform="translate(387,71)"/>
<path d="M0 0 C3.25295114 -0.22179212 5.42797793 -0.28601103 8.375 1.1875 C10 3 10 3 10.375 5.5625 C10 8 10 8 8 10 C5.31160615 10.26991906 2.70858064 10.08737357 0 10 C0 6.7 0 3.4 0 0 Z M3 3 C3 4.65 3 6.3 3 8 C4.32 7.34 5.64 6.68 7 6 C7 5.34 7 4.68 7 4 C5.68 3.67 4.36 3.34 3 3 Z " fill="#B28D5C" transform="translate(457,56)"/>
<path d="M0 0 C6.50313209 -0.46450943 10.4174808 0.67424388 16 4 C15.34 4.66 14.68 5.32 14 6 C12.33333333 6 10.66666667 6 9 6 C8.34 6.66 7.68 7.32 7 8 C6.67 7.34 6.34 6.68 6 6 C5.01 6.99 4.02 7.98 3 9 C3 7.68 3 6.36 3 5 C2.01 5.495 2.01 5.495 1 6 C0.67 4.02 0.34 2.04 0 0 Z " fill="#ADAFB8" transform="translate(165,72)"/>
<path d="M0 0 C1.27875 0.103125 2.5575 0.20625 3.875 0.3125 C4.95394531 0.39951172 4.95394531 0.39951172 6.0546875 0.48828125 C8 1 8 1 10 4 C9.45945946 8.54054054 9.45945946 8.54054054 8 10 C5.32941149 10.14115161 2.67567762 10.04247107 0 10 C0 6.7 0 3.4 0 0 Z M3 3 C3 4.65 3 6.3 3 8 C3.99 7.67 4.98 7.34 6 7 C5.67 5.68 5.34 4.36 5 3 C4.34 3 3.68 3 3 3 Z " fill="#B28D5C" transform="translate(436,56)"/>
<path d="M0 0 C3.25295114 -0.22179212 5.42797793 -0.28601103 8.375 1.1875 C10 3 10 3 10.375 5.5625 C10 8 10 8 8 10 C5.31160615 10.26991906 2.70858064 10.08737357 0 10 C0 6.7 0 3.4 0 0 Z M3 3 C3 4.65 3 6.3 3 8 C4.32 7.67 5.64 7.34 7 7 C7 6.01 7 5.02 7 4 C5.68 3.67 4.36 3.34 3 3 Z " fill="#B28D5C" transform="translate(356,56)"/>
<path d="M0 0 C3.375 -0.125 3.375 -0.125 7 0 C7.66 0.66 8.32 1.32 9 2 C8.69972883 3.67293936 8.36442233 5.33985384 8 7 C8.33 7.99 8.66 8.98 9 10 C5.125 9.125 5.125 9.125 4 8 C3.67 8.66 3.34 9.32 3 10 C2.01 10 1.02 10 0 10 C0 6.7 0 3.4 0 0 Z " fill="#B28D5C" transform="translate(270,71)"/>
<path d="M0 0 C2.64 0.33 5.28 0.66 8 1 C8.95024979 4.69541586 8.95024979 7.30458414 8 11 C7.01 10.67 6.02 10.34 5 10 C5 9.34 5 8.68 5 8 C4.34 8 3.68 8 3 8 C3 8.66 3 9.32 3 10 C2.01 10 1.02 10 0 10 C0 6.7 0 3.4 0 0 Z M3 3 C3 3.66 3 4.32 3 5 C3.66 5 4.32 5 5 5 C5 4.34 5 3.68 5 3 C4.34 3 3.68 3 3 3 Z " fill="#B28D5C" transform="translate(326,56)"/>
<path d="M0 0 C1.134375 0.020625 2.26875 0.04125 3.4375 0.0625 C3.4375 3.3625 3.4375 6.6625 3.4375 10.0625 C0.7975 10.0625 -1.8425 10.0625 -4.5625 10.0625 C-4.58939216 8.58343108 -4.60884621 7.10422517 -4.625 5.625 C-4.63660156 4.80128906 -4.64820313 3.97757813 -4.66015625 3.12890625 C-4.49001835 -0.47121162 -3.73687179 0.06555915 0 0 Z " fill="#B28D5C" transform="translate(302.5625,55.9375)"/>
<path d="M0 0 C2.64 0 5.28 0 8 0 C7.814375 0.9075 7.62875 1.815 7.4375 2.75 C7.04265379 5.68314324 7.05308428 7.2644657 8 10 C5.36 10 2.72 10 0 10 C0 6.7 0 3.4 0 0 Z " fill="#B28D5C" transform="translate(300,71)"/>
<path d="M0 0 C1.134375 0.020625 2.26875 0.04125 3.4375 0.0625 C3.4375 3.3625 3.4375 6.6625 3.4375 10.0625 C0.7975 10.0625 -1.8425 10.0625 -4.5625 10.0625 C-4.58939216 8.58343108 -4.60884621 7.10422517 -4.625 5.625 C-4.63660156 4.80128906 -4.64820313 3.97757813 -4.66015625 3.12890625 C-4.49001835 -0.47121162 -3.73687179 0.06555915 0 0 Z " fill="#B28D5C" transform="translate(371.5625,55.9375)"/>
<path d="M0 0 C3 0.25 3 0.25 5 2.25 C4.625 5.875 4.625 5.875 4 9.25 C1.1875 9.875 1.1875 9.875 -2 10.25 C-2.99 9.59 -3.98 8.93 -5 8.25 C-5.3125 5.25 -5.3125 5.25 -5 2.25 C-3 0.25 -3 0.25 0 0 Z M-2 3.25 C-1.67 4.57 -1.34 5.89 -1 7.25 C-0.01 6.92 0.98 6.59 2 6.25 C2 5.26 2 4.27 2 3.25 C0.68 3.25 -0.64 3.25 -2 3.25 Z " fill="#B28D5C" transform="translate(285,70.75)"/>
<path d="M0 0 C2.64 0 5.28 0 8 0 C7.814375 0.53625 7.62875 1.0725 7.4375 1.625 C6.88580676 4.61990614 7.39402556 7.03745829 8 10 C5.36 10 2.72 10 0 10 C0 6.7 0 3.4 0 0 Z " fill="#B28D5C" transform="translate(390,56)"/>
<path d="M0 0 C2.64 0 5.28 0 8 0 C7.814375 0.53625 7.62875 1.0725 7.4375 1.625 C6.88580676 4.61990614 7.39402556 7.03745829 8 10 C5.36 10 2.72 10 0 10 C0 6.7 0 3.4 0 0 Z " fill="#B28D5C" transform="translate(269,56)"/>
<path d="M0 0 C6.875 0.875 6.875 0.875 8 2 C8.07179964 3.51928038 8.08392007 5.04167482 8.0625 6.5625 C8.05347656 7.38878906 8.04445313 8.21507813 8.03515625 9.06640625 C8.02355469 9.70449219 8.01195312 10.34257813 8 11 C7.4225 10.649375 6.845 10.29875 6.25 9.9375 C3.75979645 8.63716826 3.75979645 8.63716826 0 10 C0 6.7 0 3.4 0 0 Z M3 3 C3 3.66 3 4.32 3 5 C3.66 5 4.32 5 5 5 C5 4.34 5 3.68 5 3 C4.34 3 3.68 3 3 3 Z " fill="#B28D5C" transform="translate(421,56)"/>
<path d="M0 0 C0.33 0 0.66 0 1 0 C1 4.62 1 9.24 1 14 C-1.52475462 15.26237731 -3.31200466 15.09856404 -6.125 15.0625 C-7.03507813 15.05347656 -7.94515625 15.04445313 -8.8828125 15.03515625 C-9.58148438 15.02355469 -10.28015625 15.01195313 -11 15 C-10.67 13.35 -10.34 11.7 -10 10 C-6.7 10 -3.4 10 0 10 C-0.33 9.01 -0.66 8.02 -1 7 C-0.72230092 4.6593935 -0.39460023 2.32375692 0 0 Z " fill="#9194A4" transform="translate(185,57)"/>
<path d="M0 0 C2.24993359 -0.02707139 4.49996095 -0.04642829 6.75 -0.0625 C8.00296875 -0.07410156 9.2559375 -0.08570312 10.546875 -0.09765625 C13.28536501 -0.02021027 15.41880293 0.17219185 18 1 C18 2.32 18 3.64 18 5 C15.75006641 5.02707139 13.50003905 5.04642829 11.25 5.0625 C9.99703125 5.07410156 8.7440625 5.08570312 7.453125 5.09765625 C4.71463499 5.02021027 2.58119707 4.82780815 0 4 C0 2.68 0 1.36 0 0 Z " fill="#9D2349" transform="translate(51,81)"/>
<path d="M0 0 C1.37478516 0.01740234 1.37478516 0.01740234 2.77734375 0.03515625 C3.69644531 0.04417969 4.61554688 0.05320313 5.5625 0.0625 C6.27277344 0.07410156 6.98304688 0.08570313 7.71484375 0.09765625 C8.04484375 0.75765625 8.37484375 1.41765625 8.71484375 2.09765625 C8.05484375 2.09765625 7.39484375 2.09765625 6.71484375 2.09765625 C6.71484375 2.75765625 6.71484375 3.41765625 6.71484375 4.09765625 C7.37484375 4.42765625 8.03484375 4.75765625 8.71484375 5.09765625 C8.07546875 4.91203125 7.43609375 4.72640625 6.77734375 4.53515625 C5.75640625 4.31859375 5.75640625 4.31859375 4.71484375 4.09765625 C4.38484375 4.42765625 4.05484375 4.75765625 3.71484375 5.09765625 C5.03484375 5.42765625 6.35484375 5.75765625 7.71484375 6.09765625 C7.71484375 6.75765625 7.71484375 7.41765625 7.71484375 8.09765625 C4.41484375 8.09765625 1.11484375 8.09765625 -2.28515625 8.09765625 C-2.66578846 5.77157055 -2.9978557 3.43710361 -3.28515625 1.09765625 C-2.28515625 0.09765625 -2.28515625 0.09765625 0 0 Z " fill="#A7ABB6" transform="translate(177.28515625,39.90234375)"/>
<path d="M0 0 C2.62506802 -0.02690844 5.24986173 -0.04679404 7.875 -0.0625 C8.62136719 -0.07087891 9.36773437 -0.07925781 10.13671875 -0.08789062 C15.7734375 -0.11328125 15.7734375 -0.11328125 18 1 C18 1.99 18 2.98 18 4 C12.06 4 6.12 4 0 4 C0 2.68 0 1.36 0 0 Z " fill="#9D2349" transform="translate(51,92)"/>
<path d="M0 0 C3.375 -0.125 3.375 -0.125 7 0 C7.66 0.66 8.32 1.32 9 2 C8.875 4.5 8.875 4.5 8 7 C5.38826809 8.80119442 3.1407711 9.21480722 0 10 C0 6.7 0 3.4 0 0 Z " fill="#B28D5C" transform="translate(260,71)"/>
<path d="M0 0 C1.32 0 2.64 0 4 0 C6.03435531 3.72965139 7 5.66905042 7 10 C6.01 10 5.02 10 4 10 C4 9.34 4 8.68 4 8 C2.68 8 1.36 8 0 8 C0 8.66 0 9.32 0 10 C-0.99 10 -1.98 10 -3 10 C-2.39009109 6.44219804 -1.4216319 3.3171411 0 0 Z " fill="#B28D5C" transform="translate(400,71)"/>
<path d="M0 0 C0.99 0 1.98 0 3 0 C3.33 2.31 3.66 4.62 4 7 C4.33 7 4.66 7 5 7 C5.33 4.69 5.66 2.38 6 0 C6.99 0.33 7.98 0.66 9 1 C9.48368522 7.40882917 9.48368522 7.40882917 7.3125 10.0625 C5 11 5 11 2.25 10.1875 C1.5075 9.795625 0.765 9.40375 0 9 C0 6.03 0 3.06 0 0 Z " fill="#B28D5C" transform="translate(410,56)"/>
<path d="M0 0 C0 0.99 0 1.98 0 3 C-1.65 3 -3.3 3 -5 3 C-5.33 3.99 -5.66 4.98 -6 6 C-5.34 6 -4.68 6 -4 6 C-3.67 5.34 -3.34 4.68 -3 4 C-2.01 4 -1.02 4 0 4 C0 5.65 0 7.3 0 9 C-3.01268757 9.92054342 -4.42729162 10.27861489 -7.3125 8.875 C-9 7 -9 7 -9.5 4.5 C-9 2 -9 2 -7.3125 0.125 C-4.42729162 -1.27861489 -3.01268757 -0.92054342 0 0 Z " fill="#B28D5C" transform="translate(408,57)"/>
<path d="M0 0 C1.953125 0.15234375 1.953125 0.15234375 4 1 C5.046875 3.06640625 5.046875 3.06640625 5.75 5.5625 C5.99234375 6.38878906 6.2346875 7.21507813 6.484375 8.06640625 C6.65453125 8.70449219 6.8246875 9.34257813 7 10 C5.39125 9.7215625 5.39125 9.7215625 3.75 9.4375 C0.48053594 9.05606253 -0.99327978 9.10197515 -4 10 C-3.52449439 8.51965236 -3.04448784 7.04074979 -2.5625 5.5625 C-2.29566406 4.73878906 -2.02882813 3.91507812 -1.75390625 3.06640625 C-1 1 -1 1 0 0 Z " fill="#B28D5C" transform="translate(422,71)"/>
<path d="M0 0 C3 1 3 1 4.75 4.375 C6 8 6 8 5 11 C3.6078125 10.7215625 3.6078125 10.7215625 2.1875 10.4375 C-1.01343771 9.75876119 -1.01343771 9.75876119 -4 11 C-3.48964169 6.6109185 -2.47785723 3.66291938 0 0 Z " fill="#B28D5C" transform="translate(450,56)"/>
<path d="M0 0 C2.625 0.375 2.625 0.375 5 1 C5.33 3.64 5.66 6.28 6 9 C1.375 11.125 1.375 11.125 -2 10 C-2.1953125 3.9453125 -2.1953125 3.9453125 -2 2 C-1.34 1.34 -0.68 0.68 0 0 Z " fill="#B28D5C" transform="translate(383,56)"/>
<path d="M0 0 C3 1 3 1 4.75 4.375 C6 8 6 8 5 11 C3.6078125 10.7215625 3.6078125 10.7215625 2.1875 10.4375 C-1.01343771 9.75876119 -1.01343771 9.75876119 -4 11 C-3.48964169 6.6109185 -2.47785723 3.66291938 0 0 Z " fill="#B28D5C" transform="translate(319,56)"/>
<path d="M0 0 C2.625 0.375 2.625 0.375 5 1 C5.33 3.64 5.66 6.28 6 9 C1.375 11.125 1.375 11.125 -2 10 C-2.1953125 3.9453125 -2.1953125 3.9453125 -2 2 C-1.34 1.34 -0.68 0.68 0 0 Z " fill="#B28D5C" transform="translate(262,56)"/>
<path d="M0 0 C0.99 0 1.98 0 3 0 C3.12375 0.969375 3.2475 1.93875 3.375 2.9375 C3.684375 4.4534375 3.684375 4.4534375 4 6 C4.66 6.33 5.32 6.66 6 7 C6 4.69 6 2.38 6 0 C6.99 0 7.98 0 9 0 C9.1953125 6.0546875 9.1953125 6.0546875 9 8 C8.34 8.66 7.68 9.32 7 10 C3.9375 9.75 3.9375 9.75 1 9 C-0.4783226 6.04335481 -0.06032783 3.25770263 0 0 Z " fill="#B28D5C" transform="translate(376,71)"/>
<path d="M0 0 C3.63 0.33 7.26 0.66 11 1 C11 1.33 11 1.66 11 2 C8.03 2 5.06 2 2 2 C2.37253906 3.02480469 2.74507812 4.04960938 3.12890625 5.10546875 C3.60741019 6.46592113 4.08523938 7.82661096 4.5625 9.1875 C4.80935547 9.86103516 5.05621094 10.53457031 5.31054688 11.22851562 C6.68180421 15.18777976 7.63077656 18.05457283 6 22 C3.71484375 24.67578125 3.71484375 24.67578125 0.9375 27.3125 C0.01839844 28.19550781 -0.90070313 29.07851563 -1.84765625 29.98828125 C-2.91306641 30.98408203 -2.91306641 30.98408203 -4 32 C-4 29 -4 29 -2.03125 26.73828125 C-1.1959375 25.93777344 -0.360625 25.13726562 0.5 24.3125 C1.3353125 23.50425781 2.170625 22.69601563 3.03125 21.86328125 C3.6809375 21.24839844 4.330625 20.63351563 5 20 C4.80664062 19.31035156 4.61328125 18.62070312 4.4140625 17.91015625 C2.76761853 11.96828666 1.28514381 6.03029017 0 0 Z " fill="#404661" transform="translate(149,31)"/>
<path d="M0 0 C5.61 0 11.22 0 17 0 C17.33 1.32 17.66 2.64 18 4 C15.56242587 4.02698422 13.12515085 4.04683099 10.6875 4.0625 C9.99720703 4.07087891 9.30691406 4.07925781 8.59570312 4.08789062 C5.4516975 4.10307906 3.00579981 4.00193327 0 3 C0 2.01 0 1.02 0 0 Z " fill="#9D2349" transform="translate(51,87)"/>
<path d="M0 0 C1.4540625 0.0309375 1.4540625 0.0309375 2.9375 0.0625 C3.2675 1.0525 3.5975 2.0425 3.9375 3.0625 C1.9575 3.0625 -0.0225 3.0625 -2.0625 3.0625 C-1.7325 4.0525 -1.4025 5.0425 -1.0625 6.0625 C0.5875 6.3925 2.2375 6.7225 3.9375 7.0625 C3.9375 7.7225 3.9375 8.3825 3.9375 9.0625 C1.1875 9.8125 1.1875 9.8125 -2.0625 10.0625 C-4.4375 8.125 -4.4375 8.125 -6.0625 6.0625 C-3.76028481 0.07674051 -3.76028481 0.07674051 0 0 Z " fill="#B28D5C" transform="translate(324.0625,70.9375)"/>
<path d="M0 0 C1.8125 0.5 1.8125 0.5 4 2 C5.26152609 4.5863924 6.15643045 7.25200829 7 10 C6.113125 9.814375 5.22625 9.62875 4.3125 9.4375 C1.14821189 9.01957516 -0.94839642 9.19222258 -4 10 C-2.8905928 6.51329166 -1.73662334 3.22515763 0 0 Z " fill="#B28D5C" transform="translate(344,56)"/>
<path d="M0 0 C0.33 0 0.66 0 1 0 C1.05422947 1.4370809 1.09289723 2.87475462 1.125 4.3125 C1.14820313 5.11300781 1.17140625 5.91351563 1.1953125 6.73828125 C1 9 1 9 -1 12 C-4.63 9.69 -8.26 7.38 -12 5 C-11.01 4.67 -10.02 4.34 -9 4 C-8.67 3.34 -8.34 2.68 -8 2 C-7.67 2.66 -7.34 3.32 -7 4 C-6.01 4 -5.02 4 -4 4 C-3.01 5.485 -3.01 5.485 -2 7 C-2.33 5.35 -2.66 3.7 -3 2 C-2.34 2 -1.68 2 -1 2 C-0.67 1.34 -0.34 0.68 0 0 Z " fill="#2A314F" transform="translate(195,75)"/>
<path d="M0 0 C0 0.99 0 1.98 0 3 C-1.65 3 -3.3 3 -5 3 C-5.33 3.99 -5.66 4.98 -6 6 C-4.02 6 -2.04 6 0 6 C0 6.99 0 7.98 0 9 C-3.01268757 9.92054342 -4.42729162 10.27861489 -7.3125 8.875 C-9 7 -9 7 -9.5 4.5 C-9 2 -9 2 -7.3125 0.125 C-4.42729162 -1.27861489 -3.01268757 -0.92054342 0 0 Z " fill="#B28D5C" transform="translate(287,57)"/>
<path d="M0 0 C0.94875 0.04125 1.8975 0.0825 2.875 0.125 C3.205 1.115 3.535 2.105 3.875 3.125 C1.895 3.125 -0.085 3.125 -2.125 3.125 C-1.795 4.115 -1.465 5.105 -1.125 6.125 C0.525 6.455 2.175 6.785 3.875 7.125 C3.875 7.785 3.875 8.445 3.875 9.125 C1.0625 9.75 1.0625 9.75 -2.125 10.125 C-3.115 9.465 -4.105 8.805 -5.125 8.125 C-5.4375 5.125 -5.4375 5.125 -5.125 2.125 C-3.125 0.125 -3.125 0.125 0 0 Z " fill="#B28D5C" transform="translate(366.125,70.875)"/>
<path d="M0 0 C0.94875 0.04125 1.8975 0.0825 2.875 0.125 C3.205 1.115 3.535 2.105 3.875 3.125 C1.895 3.125 -0.085 3.125 -2.125 3.125 C-1.795 4.115 -1.465 5.105 -1.125 6.125 C0.525 6.455 2.175 6.785 3.875 7.125 C3.875 7.785 3.875 8.445 3.875 9.125 C1.0625 9.75 1.0625 9.75 -2.125 10.125 C-3.115 9.465 -4.105 8.805 -5.125 8.125 C-5.4375 5.125 -5.4375 5.125 -5.125 2.125 C-3.125 0.125 -3.125 0.125 0 0 Z " fill="#B28D5C" transform="translate(314.125,70.875)"/>
<path d="M0 0 C0.99 0.66 1.98 1.32 3 2 C3.40843923 4.71203652 3.13336867 7.2437142 3 10 C2.34 10 1.68 10 1 10 C0.67 11.65 0.34 13.3 0 15 C-4.55384615 15.36923077 -4.55384615 15.36923077 -6.8125 13.5 C-7.204375 13.005 -7.59625 12.51 -8 12 C-7.21625 11.690625 -6.4325 11.38125 -5.625 11.0625 C-3.07669872 10.07124962 -3.07669872 10.07124962 -1 9 C-1.20625 8.2575 -1.4125 7.515 -1.625 6.75 C-2.04408751 3.67669159 -1.61949011 2.57213134 0 0 Z " fill="#848998" transform="translate(163,45)"/>
<path d="M0 0 C5.94 0 11.88 0 18 0 C18 1.32 18 2.64 18 4 C15.93757383 4.02717692 13.87504297 4.0464758 11.8125 4.0625 C10.66394531 4.07410156 9.51539063 4.08570312 8.33203125 4.09765625 C5.40699414 4.01192832 2.83683709 3.67849023 0 3 C0 2.01 0 1.02 0 0 Z " fill="#9D2349" transform="translate(51,77)"/>
<path d="M0 0 C2.64 0 5.28 0 8 0 C8 0.99 8 1.98 8 3 C7.34 3 6.68 3 6 3 C6 5.31 6 7.62 6 10 C4.68 10 3.36 10 2 10 C2 7.69 2 5.38 2 3 C1.34 3 0.68 3 0 3 C0 2.01 0 1.02 0 0 Z " fill="#B28D5C" transform="translate(307,56)"/>
<path d="M0 0 C1.98 0 3.96 0 6 0 C6 2.64 6 5.28 6 8 C4.34385343 8.38218767 2.67542976 8.71395102 1 9 C0 8 0 8 -0.09765625 6.15234375 C-0.06510417 4.1015625 -0.03255208 2.05078125 0 0 Z " fill="#9D2349" transform="translate(88,45)"/>
<path d="M0 0 C0.7425 0.37125 1.485 0.7425 2.25 1.125 C4.94283647 2.29515863 4.94283647 2.29515863 7.3125 1.125 C7.869375 0.75375 8.42625 0.3825 9 0 C8.39009109 3.55780196 7.4216319 6.6828589 6 10 C5.01 10 4.02 10 3 10 C0 3.375 0 3.375 0 0 Z " fill="#B28D5C" transform="translate(472,56)"/>
<path d="M0 0 C2.97 0 5.94 0 9 0 C9 0.99 9 1.98 9 3 C8.01 3 7.02 3 6 3 C6 5.31 6 7.62 6 10 C5.01 10 4.02 10 3 10 C3 7.69 3 5.38 3 3 C2.01 2.67 1.02 2.34 0 2 C0 1.34 0 0.68 0 0 Z " fill="#B28D5C" transform="translate(290,71)"/>
<path d="M0 0 C1.32 0.99 2.64 1.98 4 3 C1.068542 4.20282097 -1.87097242 5.38454273 -4.8125 6.5625 C-5.64587891 6.90474609 -6.47925781 7.24699219 -7.33789062 7.59960938 C-8.54155273 8.07817383 -8.54155273 8.07817383 -9.76953125 8.56640625 C-10.50792236 8.86490479 -11.24631348 9.16340332 -12.00708008 9.47094727 C-14 10 -14 10 -17 9 C-14.42033404 6.42033404 -11.90692108 5.66390156 -8.5 4.375 C-6.75203125 3.70597656 -6.75203125 3.70597656 -4.96875 3.0234375 C-2 2 -2 2 0 2 C0 1.34 0 0.68 0 0 Z " fill="#757D8E" transform="translate(218,64)"/>
<path d="M0 0 C2.80848017 1.40424009 2.92414585 3.10864198 4 6 C4.350625 6.680625 4.70125 7.36125 5.0625 8.0625 C6.83035513 11.71606727 7.25433643 14.09761999 6 18 C5.54625 17.071875 5.0925 16.14375 4.625 15.1875 C3.0578367 11.96078611 3.0578367 11.96078611 1 9 C-1.10885806 4.67129136 -1.10885806 4.67129136 -0.625 1.6875 C-0.41875 1.130625 -0.2125 0.57375 0 0 Z " fill="#3D435E" transform="translate(155,36)"/>
<path d="M0 0 C4.28642324 1.66463038 7.08617217 4.79075837 10.25 8 C10.80429688 8.5465625 11.35859375 9.093125 11.9296875 9.65625 C16 13.7466133 16 13.7466133 16 16 C11.71357676 14.33536962 8.91382783 11.20924163 5.75 8 C5.19570312 7.4534375 4.64140625 6.906875 4.0703125 6.34375 C0 2.2533867 0 2.2533867 0 0 Z " fill="#D0CFD1" transform="translate(206,50)"/>
<path d="M0 0 C5.02474293 0.61830949 9.24720494 2.12976776 13.875 4.0625 C14.56335938 4.34416016 15.25171875 4.62582031 15.9609375 4.91601562 C17.64289909 5.60515266 19.32177697 6.30180798 21 7 C21 7.66 21 8.32 21 9 C16.31196344 8.26951699 12.09114445 6.63363115 7.6875 4.9375 C6.94693359 4.65583984 6.20636719 4.37417969 5.44335938 4.08398438 C3.62757345 3.39281425 1.81360101 2.69688311 0 2 C0 1.34 0 0.68 0 0 Z " fill="#CFCFD0" transform="translate(138,65)"/>
<path d="M0 0 C3.79810782 2.53207188 4.38514118 5.22004257 5.6875 9.375 C5.91244141 10.04789063 6.13738281 10.72078125 6.36914062 11.4140625 C7.46828938 14.80839423 8 17.39519978 8 21 C7.34 21 6.68 21 6 21 C4.99534271 17.87647773 3.99707073 14.75095147 3 11.625 C2.71382812 10.73554687 2.42765625 9.84609375 2.1328125 8.9296875 C1.72675781 7.65351562 1.72675781 7.65351562 1.3125 6.3515625 C1.06113281 5.56604004 0.80976563 4.78051758 0.55078125 3.97119141 C0 2 0 2 0 0 Z " fill="#CECECF" transform="translate(146,29)"/>
<path d="M0 0 C-1.16400937 3.49202811 -1.74268386 3.72730857 -4.81640625 5.48046875 C-5.58017578 5.92197266 -6.34394531 6.36347656 -7.13085938 6.81835938 C-7.93330078 7.27017578 -8.73574219 7.72199219 -9.5625 8.1875 C-10.36880859 8.65091797 -11.17511719 9.11433594 -12.00585938 9.59179688 C-13.99942446 10.73603246 -15.99742431 11.87163231 -18 13 C-18 12.01 -18 11.02 -18 10 C-16.56298828 8.74145508 -16.56298828 8.74145508 -14.5703125 7.51953125 C-13.85746094 7.07802734 -13.14460937 6.63652344 -12.41015625 6.18164062 C-11.65605469 5.72982422 -10.90195313 5.27800781 -10.125 4.8125 C-9.00544922 4.11737305 -9.00544922 4.11737305 -7.86328125 3.40820312 C-2.29169735 0 -2.29169735 0 0 0 Z " fill="#D0CFD0" transform="translate(180,83)"/>
<path d="M0 0 C3.375 -0.125 3.375 -0.125 7 0 C7.66 0.66 8.32 1.32 9 2 C8.01 2.495 8.01 2.495 7 3 C7.33 5.64 7.66 8.28 8 11 C6.68 10.67 5.36 10.34 4 10 C3.814375 9.13375 3.814375 9.13375 3.625 8.25 C2.99089935 5.96723766 2.11228159 4.08552799 1 2 C0.67 1.34 0.34 0.68 0 0 Z " fill="#74798C" transform="translate(156,37)"/>
<path d="M0 0 C0.33 0 0.66 0 1 0 C1.33868777 2.20751848 1.67071689 4.41605911 2 6.625 C2.185625 7.85476562 2.37125 9.08453125 2.5625 10.3515625 C2.95402516 13.6166027 3.08080924 16.71712451 3 20 C3.66 20.33 4.32 20.66 5 21 C4.01 21.33 3.02 21.66 2 22 C-0.2882753 19.7117247 0.19386017 14.65903645 -0.125 11.5625 C-0.22425781 10.67755859 -0.32351562 9.79261719 -0.42578125 8.88085938 C-0.51472656 8.03458984 -0.60367188 7.18832031 -0.6953125 6.31640625 C-0.77797363 5.53724854 -0.86063477 4.75809082 -0.94580078 3.95532227 C-1 2 -1 2 0 0 Z " fill="#798292" transform="translate(159,72)"/>
<path d="M0 0 C-5.49349789 3.81492909 -10.95092327 7.14043646 -17 10 C-17 9.01 -17 8.02 -17 7 C-14.73595458 5.63319847 -12.46498979 4.28155555 -10.1875 2.9375 C-9.54490234 2.54755859 -8.90230469 2.15761719 -8.24023438 1.75585938 C-3.33984375 -1.11328125 -3.33984375 -1.11328125 0 0 Z " fill="#B8B9BE" transform="translate(181,80)"/>
<path d="M0 0 C0.515625 0.66 1.03125 1.32 1.5625 2 C4.79995755 4.65637543 6.92552281 4.31342132 11 4 C11 3.34 11 2.68 11 2 C12.98 2 14.96 2 17 2 C16.67 2.99 16.34 3.98 16 5 C14.68 4.67 13.36 4.34 12 4 C12 4.66 12 5.32 12 6 C8.04 6 4.08 6 0 6 C-1 3 -1 3 0 0 Z " fill="#565D74" transform="translate(185,33)"/>
<path d="M0 0 C2 1 2 1 3.125 4.0625 C3.41375 5.031875 3.7025 6.00125 4 7 C4.66 6.67 5.32 6.34 6 6 C5.46930939 9.82097239 4.50298434 12.06171403 2 15 C0.73694665 9.92523206 -0.27036084 5.27203646 0 0 Z " fill="#313855" transform="translate(163,70)"/>
<path d="M0 0 C-0.66 3.96 -1.32 7.92 -2 12 C-2.99 12 -3.98 12 -5 12 C-5 8.37 -5 4.74 -5 1 C-3 0 -3 0 0 0 Z " fill="#B28D5C" transform="translate(341,54)"/>
<path d="M0 0 C1 3 1 3 0.19555664 4.7175293 C-0.22862549 5.33023682 -0.65280762 5.94294434 -1.08984375 6.57421875 C-1.54423828 7.24130859 -1.99863281 7.90839844 -2.46679688 8.59570312 C-2.95212891 9.28599609 -3.43746094 9.97628906 -3.9375 10.6875 C-4.41896484 11.38939453 -4.90042969 12.09128906 -5.39648438 12.81445312 C-6.58846676 14.54931858 -7.79306473 16.27550373 -9 18 C-9.66 17.67 -10.32 17.34 -11 17 C-9.35634678 14.3528064 -7.70971327 11.70747957 -6.0625 9.0625 C-5.59392578 8.30775391 -5.12535156 7.55300781 -4.64257812 6.77539062 C-4.19462891 6.05673828 -3.74667969 5.33808594 -3.28515625 4.59765625 C-2.87144775 3.93258057 -2.45773926 3.26750488 -2.03149414 2.58227539 C-1 1 -1 1 0 0 Z " fill="#CFCFD0" transform="translate(179,14)"/>
<path d="M0 0 C0 3 0 3 -2.3359375 5.59375 C-3.34159469 6.57014203 -4.35497561 7.53862701 -5.375 8.5 C-8.20316005 11.20613284 -10.81309723 13.71964585 -13 17 C-13.66 16.34 -14.32 15.68 -15 15 C-14.48050781 14.49210937 -13.96101562 13.98421875 -13.42578125 13.4609375 C-10.18676355 10.26382945 -6.992439 7.10159137 -4.125 3.5625 C-2 1 -2 1 0 0 Z " fill="#7A8292" transform="translate(154,49)"/>
<path d="M0 0 C0.66 0.99 1.32 1.98 2 3 C-3.61 4.98 -9.22 6.96 -15 9 C-15.33 8.34 -15.66 7.68 -16 7 C-14.92878906 6.57847656 -13.85757813 6.15695313 -12.75390625 5.72265625 C-11.35671698 5.16940681 -9.95958449 4.61601398 -8.5625 4.0625 C-7.50192383 3.64581055 -7.50192383 3.64581055 -6.41992188 3.22070312 C-2.95326119 2.03777966 -2.95326119 2.03777966 0 0 Z " fill="#838A98" transform="translate(213,63)"/>
<path d="M0 0 C1.65 0.33 3.3 0.66 5 1 C4.67 2.98 4.34 4.96 4 7 C2.35 7 0.7 7 -1 7 C-0.67 4.69 -0.34 2.38 0 0 Z " fill="#878B9C" transform="translate(178,49)"/>
<path d="M0 0 C0.99 0.66 1.98 1.32 3 2 C2.67 2.66 2.34 3.32 2 4 C-0.97 4 -3.94 4 -7 4 C-7 3.34 -7 2.68 -7 2 C-7.66 1.67 -8.32 1.34 -9 1 C-5.58135526 -0.61436002 -3.58401153 -1.43360461 0 0 Z " fill="#2B3251" transform="translate(183,37)"/>
<path d="M0 0 C0.33 0.99 0.66 1.98 1 3 C6.1693489 2.59443869 6.1693489 2.59443869 11 1 C11 3.64 11 6.28 11 9 C9 6 9 6 9 4 C7.9275 4.226875 6.855 4.45375 5.75 4.6875 C2 5 2 5 -0.4375 3.5625 C-0.953125 3.046875 -1.46875 2.53125 -2 2 C-1.34 2 -0.68 2 0 2 C0 1.34 0 0.68 0 0 Z " fill="#50576F" transform="translate(186,69)"/>
<path d="M0 0 C0.99 0 1.98 0 3 0 C3 3.3 3 6.6 3 10 C2.01 10 1.02 10 0 10 C0 6.7 0 3.4 0 0 Z " fill="#B28D5C" transform="translate(371,71)"/>
<path d="M0 0 C0.99 0 1.98 0 3 0 C3 3.3 3 6.6 3 10 C2.01 10 1.02 10 0 10 C0 6.7 0 3.4 0 0 Z " fill="#B28D5C" transform="translate(329,71)"/>
<path d="M0 0 C0.99 0 1.98 0 3 0 C3 3.3 3 6.6 3 10 C2.01 10 1.02 10 0 10 C0 6.7 0 3.4 0 0 Z " fill="#B28D5C" transform="translate(431,56)"/>
<path d="M0 0 C0.33 0 0.66 0 1 0 C1.02696365 1.79158489 1.04637917 3.58328473 1.0625 5.375 C1.07410156 6.37273438 1.08570313 7.37046875 1.09765625 8.3984375 C1 11 1 11 0 13 C-1.32 13 -2.64 13 -4 13 C-4.33 12.34 -4.66 11.68 -5 11 C-6.65 11 -8.3 11 -10 11 C-10 10.67 -10 10.34 -10 10 C-6.7 10 -3.4 10 0 10 C-0.33 9.01 -0.66 8.02 -1 7 C-0.72230092 4.6593935 -0.39460023 2.32375692 0 0 Z " fill="#6E7287" transform="translate(185,57)"/>
<path d="M0 0 C1.65 0 3.3 0 5 0 C4.649375 0.86625 4.29875 1.7325 3.9375 2.625 C2.931041 6.24825242 3.13936481 8.3853322 4 12 C3.01 12.33 2.02 12.66 1 13 C0.67 8.71 0.34 4.42 0 0 Z " fill="#B9BBC5" transform="translate(173,54)"/>
<path d="M0 0 C0.66 0.66 1.32 1.32 2 2 C1.45730469 2.53109375 0.91460937 3.0621875 0.35546875 3.609375 C-0.35996094 4.31578125 -1.07539063 5.0221875 -1.8125 5.75 C-2.87404297 6.79414062 -2.87404297 6.79414062 -3.95703125 7.859375 C-6.03281493 9.93721763 -6.03281493 9.93721763 -7.63671875 12.265625 C-8.08660156 12.83796875 -8.53648437 13.4103125 -9 14 C-9.66 14 -10.32 14 -11 14 C-9.53417985 10.57719483 -7.61937745 8.43519517 -4.9375 5.875 C-2.08428067 3.22095 -2.08428067 3.22095 0 0 Z " fill="#868D9B" transform="translate(156,50)"/>
<path d="M0 0 C2.31 0 4.62 0 7 0 C6.34 1.98 5.68 3.96 5 6 C3.68 5.67 2.36 5.34 1 5 C0.67 3.35 0.34 1.7 0 0 Z " fill="#838897" transform="translate(197,37)"/>
<path d="M0 0 C3.625 -0.1875 3.625 -0.1875 7 0 C7.33 0.66 7.66 1.32 8 2 C7.34 2 6.68 2 6 2 C6 2.66 6 3.32 6 4 C6.66 4.33 7.32 4.66 8 5 C3 4 3 4 -2 3 C-1.34 2.01 -0.68 1.02 0 0 Z " fill="#9295A5" transform="translate(178,40)"/>
<path d="M0 0 C0.33 1.32 0.66 2.64 1 4 C1.66 4 2.32 4 3 4 C3.33 5.65 3.66 7.3 4 9 C1.83125748 8.49396008 0.00032373 8.00016187 -2 7 C-1.125 2.25 -1.125 2.25 0 0 Z " fill="#6D7387" transform="translate(182,29)"/>
<path d="M0 0 C0.33 0.66 0.66 1.32 1 2 C2.093125 1.79375 3.18625 1.5875 4.3125 1.375 C8 1 8 1 11 3 C10.06027344 3.19916016 10.06027344 3.19916016 9.1015625 3.40234375 C7.87566406 3.66724609 7.87566406 3.66724609 6.625 3.9375 C5.81289062 4.11152344 5.00078125 4.28554687 4.1640625 4.46484375 C1.970537 4.92330693 1.970537 4.92330693 0 6 C-1.125 2.25 -1.125 2.25 0 0 Z " fill="#464C66" transform="translate(174,76)"/>
<path d="M0 0 C2.97 0.495 2.97 0.495 6 1 C5.1875 2.9375 5.1875 2.9375 4 5 C3.01 5.33 2.02 5.66 1 6 C0.67 4.02 0.34 2.04 0 0 Z " fill="#6C7286" transform="translate(165,72)"/>
<path d="M0 0 C3.465 1.485 3.465 1.485 7 3 C7 3.66 7 4.32 7 5 C3.26512223 4.5020163 1.18762365 4.12508244 -2 2 C-1.34 1.34 -0.68 0.68 0 0 Z " fill="#454A65" transform="translate(155,64)"/>
<path d="M0 0 C2.3828125 -0.29296875 2.3828125 -0.29296875 5.125 -0.1875 C6.03507813 -0.16042969 6.94515625 -0.13335937 7.8828125 -0.10546875 C8.58148438 -0.07066406 9.28015625 -0.03585938 10 0 C7.94801218 2.05198782 6.7115426 3.02083184 4 4 C0.75 3.625 0.75 3.625 -2 3 C-1.34 2.01 -0.68 1.02 0 0 Z " fill="#313755" transform="translate(150,62)"/>
<path d="M0 0 C1.98 0.495 1.98 0.495 4 1 C4 2.32 4 3.64 4 5 C2.35 5 0.7 5 -1 5 C-0.67 3.35 -0.34 1.7 0 0 Z " fill="#9D2349" transform="translate(58,20)"/>
<path d="M0 0 C4.75 0.875 4.75 0.875 7 2 C7 2.66 7 3.32 7 4 C6.21625 3.95875 5.4325 3.9175 4.625 3.875 C1.83883881 3.71271266 1.83883881 3.71271266 0 6 C0 4.02 0 2.04 0 0 Z " fill="#7A8092" transform="translate(172,74)"/>
<path d="M0 0 C1.65 0 3.3 0 5 0 C5.33 0.99 5.66 1.98 6 3 C5.34 3 4.68 3 4 3 C4 5.31 4 7.62 4 10 C3.34 9.67 2.68 9.34 2 9 C2.04125 8.071875 2.0825 7.14375 2.125 6.1875 C2.27136339 2.84190281 2.27136339 2.84190281 0 0 Z " fill="#D7D8DE" transform="translate(181,54)"/>
<path d="M0 0 C2.35215584 4.39069089 3.34366181 7.15069422 2 12 C1.46809459 10.56656 0.94984742 9.12804633 0.4375 7.6875 C0.14746094 6.88699219 -0.14257812 6.08648437 -0.44140625 5.26171875 C-1 3 -1 3 0 0 Z " fill="#4A506A" transform="translate(159,42)"/>
<path d="M0 0 C0.99 0.99 1.98 1.98 3 3 C-1.95 4.485 -1.95 4.485 -7 6 C-2.25 1.125 -2.25 1.125 0 0 Z " fill="#383F5B" transform="translate(204,64)"/>
<path d="M0 0 C0.66 0.66 1.32 1.32 2 2 C4.8684413 4.10232344 4.8684413 4.10232344 8 5 C8 5.66 8 6.32 8 7 C5.03 6.01 2.06 5.02 -1 4 C-0.67 2.68 -0.34 1.36 0 0 Z " fill="#4A5069" transform="translate(143,62)"/>
<path d="M0 0 C0.99 0.33 1.98 0.66 3 1 C2.34 2.98 1.68 4.96 1 7 C1.99 7.33 2.98 7.66 4 8 C2.35 8 0.7 8 -1 8 C-1.125 2.25 -1.125 2.25 0 0 Z " fill="#818798" transform="translate(197,47)"/>
<path d="M0 0 C0.66 1.32 1.32 2.64 2 4 C2.66 4 3.32 4 4 4 C3.67 4.99 3.34 5.98 3 7 C1.02 5.68 -0.96 4.36 -3 3 C-2.01 2.67 -1.02 2.34 0 2 C0 1.34 0 0.68 0 0 Z " fill="#323956" transform="translate(186,77)"/>
<path d="M0 0 C0.66 0 1.32 0 2 0 C2 1.98 2 3.96 2 6 C0.02 5.34 -1.96 4.68 -4 4 C-2.68 3.34 -1.36 2.68 0 2 C0 1.34 0 0.68 0 0 Z " fill="#767C8E" transform="translate(160,61)"/>
<path d="M0 0 C7.75 0.75 7.75 0.75 10 3 C7.8125 3.75 7.8125 3.75 5 4 C2.1875 2.0625 2.1875 2.0625 0 0 Z " fill="#242B4B" transform="translate(201,62)"/>
<path d="M0 0 C1.32 0 2.64 0 4 0 C4 1.98 4 3.96 4 6 C2.68 5.34 1.36 4.68 0 4 C0 2.68 0 1.36 0 0 Z " fill="#6A7085" transform="translate(191,73)"/>
<path d="M0 0 C1 3 1 3 0 6 C-0.66 6 -1.32 6 -2 6 C-2 5.01 -2 4.02 -2 3 C-3.98 3 -5.96 3 -8 3 C-8 2.67 -8 2.34 -8 2 C-6.865625 1.855625 -5.73125 1.71125 -4.5625 1.5625 C-1.19222799 1.38828522 -1.19222799 1.38828522 0 0 Z " fill="#888D9B" transform="translate(213,29)"/>
<path d="M0 0 C1.37562854 1.28965176 2.70766393 2.62689293 4 4 C4 4.66 4 5.32 4 6 C2.02 6 0.04 6 -2 6 C-1.34 5.67 -0.68 5.34 0 5 C0 3.35 0 1.7 0 0 Z " fill="#2E3553" transform="translate(201,50)"/>
</svg>
